<?xml version="1.0" standalone="no"?>
<!DOCTYPE svg PUBLIC "-//W3C//DTD SVG 20010904//EN"
 "http://www.w3.org/TR/2001/REC-SVG-20010904/DTD/svg10.dtd">
<svg version="1.0" xmlns="http://www.w3.org/2000/svg"
 width="1024.000000pt" height="1024.000000pt" viewBox="0 0 1024.000000 1024.000000"
 preserveAspectRatio="xMidYMid meet">
<metadata>
Created by potrace 1.16, written by Peter Selinger 2001-2019
</metadata>
<g transform="translate(0.000000,1024.000000) scale(1.000000,-1.000000)"
fill="#FFD300" stroke="none">
<path d="M493 824 c2 0 6 0 8 0 l4 1 -8 0 -8 0 4 -1z"/>
<path d="M521 824 c2 0 6 0 8 0 l4 1 -8 0 -8 0 4 -1z"/>
<path d="M481 823 c1 0 3 0 4 0 l2 1 -4 0 -4 0 2 -1z"/>
<path d="M539 823 c1 0 3 0 4 0 l3 1 -5 0 -4 0 2 -1z"/>
<path d="M555 824 c0 -1 0 -1 1 -1 0 0 0 0 0 1 0 0 0 0 0 0 -1 0 -1 0 -1 0z"/>
<path d="M472 822 c1 0 3 0 3 0 l2 1 -3 0 -3 0 1 -1z"/>
<path d="M548 822 c1 0 3 0 4 0 l2 1 -4 0 -3 0 1 -1z"/>
<path d="M455 822 c0 -1 0 -1 1 -1 0 0 0 0 0 1 0 0 0 0 0 0 -1 0 -1 0 -1 0z"/>
<path d="M465 821 c1 0 3 0 3 0 l2 1 -3 0 -3 0 1 -1z"/>
<path d="M556 821 c1 0 3 0 3 0 l2 1 -3 0 -3 0 1 -1z"/>
<path d="M569 822 c0 -1 0 -1 1 -1 0 0 0 0 0 1 0 0 0 0 0 0 -1 0 -1 0 -1 0z"/>
<path d="M459 820 c1 0 3 0 3 0 l2 1 -3 0 -3 0 1 -1z"/>
<path d="M563 820 c1 0 3 0 3 0 l2 1 -3 0 -3 0 1 -1z"/>
<path d="M454 819 c1 0 1 0 2 0 l0 1 -2 0 -1 0 1 -1z"/>
<path d="M569 819 c1 0 3 0 3 0 l2 1 -3 0 -3 0 1 -1z"/>
<path d="M449 818 c1 0 1 0 2 0 l0 1 -2 0 -1 0 1 -1z"/>
<path d="M575 818 c1 0 1 0 2 0 l0 1 -2 0 -1 0 1 -1z"/>
<path d="M444 817 c0 0 2 0 2 0 l2 1 -3 0 -2 0 1 -1z"/>
<path d="M580 817 c1 0 3 -1 5 -1 l2 0 -3 1 c-1 0 -3 1 -4 1 l-2 0 2 -1z"/>
<path d="M439 816 c0 0 2 0 2 0 l2 1 -3 0 -2 0 1 -1z"/>
<path d="M435 815 l1 0 1 0 0 1 -1 0 -1 0 0 -1z"/>
<path d="M588 815 c0 0 2 0 2 0 l2 1 -3 0 -2 0 1 -1z"/>
<path d="M595 816 c0 -1 0 -1 1 -1 0 0 0 0 0 1 0 0 0 0 0 0 -1 0 -1 0 -1 0z"/>
<path d="M432 814 c1 0 1 0 2 0 l0 1 -2 0 -1 0 1 -1z"/>
<path d="M592 814 l1 0 1 0 0 1 -1 0 -1 0 0 -1z"/>
<path d="M423 813 l0 -1 -3 0 -2 1 1 -1 2 -1 3 1 2 1 -2 0 -2 1 1 -1z"/>
<path d="M428 813 c1 0 1 0 2 0 l0 1 -2 0 -1 0 1 -1z"/>
<path d="M596 813 c1 0 1 0 2 0 l0 1 -2 0 -1 0 1 -1z"/>
<path d="M600 812 c1 0 1 0 2 0 l0 1 -2 0 -1 0 1 -1z"/>
<path d="M607 813 c0 -1 0 -1 1 -1 0 0 0 0 0 1 0 0 0 0 0 0 -1 0 -1 0 -1 0z"/>
<path d="M605 811 c1 0 2 -1 3 -1 l1 0 -2 1 c-1 1 -2 1 -3 1 l-1 0 2 -1z"/>
<path d="M417 810 l1 0 1 0 0 1 -1 0 -1 0 0 -1z"/>
<path d="M486 810 c-27 -2 -56 -9 -83 -19 l-12 -5 -15 -8 c-8 -4 -20 -10 -25
-14 -36 -23 -67 -56 -88 -92 -6 -12 -13 -27 -14 -32 l-1 -3 2 -1 c4 -1 5 -1 5
0 0 0 2 6 5 13 11 24 25 44 46 67 l8 9 13 11 12 10 14 10 14 9 13 6 c27 14 52
22 83 27 l15 3 17 1 17 1 17 -1 c25 -1 45 -5 67 -11 13 -4 23 -8 39 -15 l13
-5 12 -8 c17 -10 24 -15 38 -27 l12 -10 9 -10 c12 -13 21 -25 29 -36 7 -11 17
-30 20 -38 1 -3 3 -6 3 -6 l1 -1 3 1 3 1 0 3 c-1 4 -14 29 -20 39 -3 5 -9 13
-13 19 -16 22 -33 38 -55 55 -15 11 -26 18 -43 27 -33 16 -71 27 -110 30 l-12
1 -14 0 c-8 0 -19 -1 -25 -1z"/>
<path d="M414 809 l1 0 1 0 0 1 -1 0 -1 0 0 -1z"/>
<path d="M609 809 l1 0 1 0 0 1 -1 0 -1 0 0 -1z"/>
<path d="M411 808 l1 0 1 0 0 1 -1 0 -1 0 0 -1z"/>
<path d="M614 808 c1 0 2 -1 3 -1 l1 0 -2 1 c-1 1 -2 1 -3 1 l-1 0 2 -1z"/>
<path d="M408 807 l1 0 1 0 0 1 -1 0 -1 0 0 -1z"/>
<path d="M405 806 l1 0 1 0 0 1 -1 0 -1 0 0 -1z"/>
<path d="M618 806 l1 0 1 0 0 1 -1 0 -1 0 0 -1z"/>
<path d="M402 805 l1 0 1 0 0 1 -1 0 -1 0 0 -1z"/>
<path d="M621 805 l1 0 1 0 0 1 -1 0 -1 0 0 -1z"/>
<path d="M394 805 c0 -1 0 -1 1 -1 0 0 0 0 0 1 0 0 0 0 0 0 -1 0 -1 0 -1 0z"/>
<path d="M398 804 l-1 -1 1 0 c0 0 1 0 2 1 l2 1 -1 0 c-1 0 -2 0 -3 -1z"/>
<path d="M624 805 c0 -1 0 -1 1 -1 0 0 0 0 0 1 0 0 0 0 0 0 -1 0 -1 0 -1 0z"/>
<path d="M626 803 l1 0 1 0 0 1 -1 0 -1 0 0 -1z"/>
<path d="M393 802 l-1 -1 1 0 c0 0 1 0 2 1 l2 1 -1 0 c-1 0 -2 0 -3 -1z"/>
<path d="M630 802 c1 0 3 -1 4 -1 l3 -1 -2 1 c-1 0 -3 1 -4 1 l-2 1 1 -1z"/>
<path d="M388 800 l-1 -1 1 0 c0 0 1 0 2 1 l2 1 -1 0 c-1 0 -2 0 -3 -1z"/>
<path d="M637 800 c0 -1 0 -1 1 -1 0 0 0 0 0 1 0 0 0 0 0 0 -1 0 -1 0 -1 0z"/>
<path d="M383 798 l-1 -1 1 0 c0 0 1 0 2 1 l2 1 -1 0 c-1 0 -2 0 -3 -1z"/>
<path d="M641 798 c1 -1 3 -2 4 -2 0 0 -1 1 -2 2 -1 0 -3 1 -3 1 -1 0 0 -1 1
-1z"/>
<path d="M380 797 c0 -1 0 -1 1 -1 0 0 0 0 0 1 0 0 0 0 0 0 -1 0 -1 0 -1 0z"/>
<path d="M377 795 l-1 -1 1 1 c2 0 2 1 1 1 0 0 -1 0 -1 -1z"/>
<path d="M646 796 c0 -1 5 -3 12 -6 6 -3 10 -5 9 -5 -3 2 -19 11 -21 11 0 0 0
0 0 0z"/>
<path d="M374 794 c0 -1 0 -1 1 -1 0 0 0 0 0 1 0 0 0 0 0 0 -1 0 -1 0 -1 0z"/>
<path d="M372 793 c0 -1 0 -1 1 -1 0 0 0 0 0 1 0 0 0 0 0 0 -1 0 -1 0 -1 0z"/>
<path d="M370 792 c0 -1 0 -1 1 -1 0 0 0 0 0 1 0 0 0 0 0 0 -1 0 -1 0 -1 0z"/>
<path d="M491 791 l-3 0 0 -2 c0 -7 2 -46 3 -46 l1 -1 10 1 11 0 0 6 0 5 -6 0
-6 0 -1 13 c0 7 -1 16 -1 19 l0 6 -2 0 c-1 0 -4 -1 -6 -1z"/>
<path d="M518 778 c0 -8 0 -17 0 -20 l0 -6 1 -3 2 -2 3 -3 3 -2 7 0 6 0 3 3 3
3 1 4 c0 3 1 11 2 18 1 7 1 15 2 17 l0 3 -5 0 -5 1 -1 -1 c0 0 -1 -8 -2 -18
l-1 -17 -1 -1 -1 -1 -3 0 -2 1 0 19 0 19 -6 0 -6 0 0 -14z"/>
<path d="M368 791 c0 -1 0 -1 1 -1 0 0 0 0 0 1 0 0 0 0 0 0 -1 0 -1 0 -1 0z"/>
<path d="M366 790 c0 -1 0 -1 1 -1 0 0 0 0 0 1 0 0 0 0 0 0 -1 0 -1 0 -1 0z"/>
<path d="M360 789 c0 -1 0 -1 1 -1 0 0 0 0 0 1 0 0 0 0 0 0 -1 0 -1 0 -1 0z"/>
<path d="M361 787 c-2 -1 -4 -2 -4 -3 0 0 2 1 4 2 2 1 4 2 4 3 0 0 0 0 -4 -2z"/>
<path d="M455 787 l-3 -2 -1 -9 c-1 -5 -2 -9 -2 -9 0 0 -2 4 -3 9 l-2 8 -4 0
c-2 -1 -4 -2 -6 -2 l-2 -1 3 -9 c4 -11 9 -32 9 -34 0 -1 0 -2 1 -2 1 -1 8 0
10 1 l1 1 -2 8 c-1 4 -2 9 -2 9 l1 1 5 -8 6 -9 5 1 c3 0 6 1 6 1 l1 1 -8 11
-8 11 0 2 c0 1 1 5 2 10 1 5 2 9 2 10 l0 2 -3 0 c-1 0 -4 -1 -6 -1z"/>
<path d="M563 783 l-5 -4 -2 -6 -2 -6 -1 -8 0 -8 2 -4 2 -5 4 -2 4 -3 7 0 7 0
2 9 c1 5 2 11 3 14 l0 5 -1 0 c-1 1 -4 1 -6 2 l-5 0 -1 -3 0 -4 0 -3 1 -3 -1
-3 c-1 -2 -1 -4 -2 -4 -1 0 -3 2 -4 4 l-1 2 0 4 c0 2 1 6 2 9 l1 5 3 3 3 3 3
0 3 -1 2 -2 2 -2 2 5 1 5 -1 1 c0 1 -2 2 -4 3 l-3 1 -6 0 -5 0 -4 -4z"/>
<path d="M353 782 c-4 -2 -4 -2 0 0 2 0 3 1 3 2 0 0 0 0 -3 -2z"/>
<path d="M669 784 c0 -1 0 -1 1 -1 0 0 0 0 0 1 0 0 0 0 0 0 -1 0 -1 0 -1 0z"/>
<path d="M673 782 c1 -1 2 -3 3 -3 l2 -1 0 2 0 1 -1 -1 c-1 0 -2 1 -4 2 l-2 1
2 -1z"/>
<path d="M347 779 l0 -1 1 0 c1 1 1 2 1 2 -1 0 -1 -1 -2 -1z"/>
<path d="M419 779 c-5 -2 -9 -5 -11 -9 l-2 -3 0 -5 0 -6 1 -5 2 -5 4 -6 3 -6
4 -3 5 -2 4 0 4 0 4 3 4 2 0 2 c0 1 -3 9 -4 9 0 0 -1 -1 -3 -2 l-2 -3 -3 0 -2
0 -3 3 c-1 1 -3 4 -4 7 l-2 4 0 6 0 5 2 2 2 2 3 0 4 0 -1 2 c0 3 -3 9 -4 9 0
0 -2 -1 -5 -1z"/>
<path d="M340 774 c-3 -1 -5 -3 -5 -4 0 0 2 2 6 4 4 3 6 4 5 4 0 0 -3 -2 -6
-4z"/>
<path d="M598 776 c-4 -3 -8 -8 -10 -15 l-2 -5 -1 -6 0 -5 1 -5 1 -4 3 -3 4
-3 4 -1 c3 -1 6 -2 8 -2 l3 0 4 13 c2 7 4 13 4 14 l0 1 -5 1 -5 2 -2 -4 c0 -1
-1 -4 -1 -5 0 -1 -1 -4 -1 -7 l-1 -4 -2 0 c0 0 -2 1 -2 2 l-2 2 0 5 0 4 2 5 2
6 3 2 c1 2 3 3 5 3 l2 1 3 -3 c3 -1 4 -2 4 -2 1 0 1 2 2 5 l2 4 -2 1 c-1 1 -3
3 -5 3 l-4 2 -4 0 -4 0 -4 -2z"/>
<path d="M679 778 c0 -1 1 -2 3 -2 l2 -2 0 1 c-1 1 -5 3 -5 3z"/>
<path d="M687 772 c1 -1 3 -3 5 -3 l2 -1 -3 2 c-1 1 -3 3 -4 3 l-2 1 2 -2z"/>
<path d="M332 768 l-1 -1 1 1 c1 1 2 1 2 2 0 0 -1 0 -2 -2z"/>
<path d="M626 760 c-2 -5 -6 -14 -9 -21 -3 -7 -5 -13 -5 -14 l0 -2 10 -4 11
-5 1 4 c1 2 2 4 2 4 l0 2 -6 2 -5 3 2 4 c0 2 1 4 2 4 0 0 2 -1 5 -2 2 -1 4 -2
4 -2 1 1 3 7 3 8 l0 2 -4 2 -4 1 0 3 c1 2 2 4 2 4 l1 2 5 -3 c3 -2 5 -3 6 -3
0 1 3 8 3 9 0 1 -19 11 -20 11 0 0 -2 -4 -4 -9z"/>
<path d="M694 768 c0 -1 1 -1 2 -2 l2 -1 -2 1 c-1 2 -2 2 -2 2z"/>
<path d="M323 762 l-6 -5 -1 1 -1 0 0 -1 c0 0 -2 -3 -6 -7 -3 -3 -4 -4 -2 -2
3 2 8 7 13 11 9 7 11 8 10 8 0 0 -3 -2 -7 -5z"/>
<path d="M700 763 c0 -1 2 -2 2 -2 0 0 -1 1 -1 2 -1 1 -3 2 -3 2 0 0 1 -1 2
-2z"/>
<path d="M379 761 l-5 -3 1 -2 c0 -1 3 -11 6 -22 4 -11 6 -21 7 -22 0 -1 0 -2
0 -2 1 0 10 4 10 5 l1 1 -2 4 -2 5 3 1 c1 1 2 2 3 2 0 0 2 -2 4 -4 1 -2 2 -4
3 -4 0 0 10 4 10 5 0 2 -31 39 -32 39 -1 0 -4 -1 -7 -3z m12 -19 l4 -5 -1 -1
0 -1 -2 0 -1 1 -2 5 c-1 3 -2 6 -1 6 0 0 1 -2 3 -5z"/>
<path d="M703 761 c0 0 2 -3 5 -5 3 -2 5 -4 4 -3 -1 2 -9 8 -9 8z"/>
<path d="M647 734 c-6 -11 -11 -21 -11 -21 0 -1 8 -7 8 -6 1 0 2 4 4 8 3 4 5
7 5 7 l1 0 -2 -8 c0 -4 -1 -8 -1 -9 -1 -1 0 -2 4 -5 l4 -2 1 1 c0 0 1 5 2 10
l2 10 4 1 4 1 3 5 3 4 0 4 0 3 -2 4 -2 3 -8 5 c-4 3 -7 5 -8 5 0 0 -5 -9 -11
-20z m18 4 l2 -2 -1 -3 -1 -3 -2 0 -1 -1 -2 1 c-1 1 -2 1 -2 2 0 1 4 8 5 8 0
0 1 -1 2 -2z"/>
<path d="M718 748 c2 -2 4 -4 4 -4 0 0 -1 2 -3 4 -3 2 -5 4 -5 4 0 0 1 -2 4
-4z"/>
<path d="M296 738 l-5 -5 5 5 c3 3 6 6 6 6 0 0 -1 0 -6 -6z"/>
<path d="M346 741 c-2 -2 -4 -3 -4 -3 0 -1 2 -4 4 -7 3 -4 8 -13 13 -20 5 -7
9 -13 9 -13 1 0 5 3 9 6 l9 5 -2 5 -1 4 -1 0 c-1 0 -3 -1 -5 -3 -3 -2 -5 -3
-5 -3 -1 0 -2 3 -4 6 -10 16 -16 26 -17 26 0 0 -2 -1 -5 -3z"/>
<path d="M730 737 c11 -12 14 -15 7 -7 -3 3 -8 8 -10 11 l-4 4 7 -8z"/>
<path d="M489 734 c-13 -2 -34 -6 -46 -10 -24 -7 -43 -16 -64 -30 -14 -10 -26
-20 -35 -31 l-8 -8 -7 -11 c-4 -7 -8 -13 -9 -14 -1 -2 -3 -3 -3 -3 l-1 0 0 2
1 2 -1 1 c-1 1 -10 6 -19 11 -10 6 -19 11 -20 11 l-2 2 -2 -3 c-1 -1 -2 -3 -2
-4 l0 -1 14 -7 c14 -8 38 -20 38 -20 1 0 4 6 9 12 4 6 11 16 15 21 l7 9 11 9
c6 5 15 12 20 16 l10 6 16 8 c17 8 27 12 44 17 13 4 19 5 32 7 l11 1 15 0 15
0 9 -1 c25 -3 53 -11 75 -22 19 -8 41 -23 54 -36 8 -8 21 -25 30 -37 l6 -10 2
0 c0 0 2 1 4 2 1 1 12 7 24 13 11 6 21 12 21 12 l1 1 -2 3 -1 3 -2 0 c0 -1 -9
-5 -19 -11 l-18 -10 -2 -2 -2 -2 1 -2 0 -1 -1 0 c0 1 -3 4 -5 7 -2 4 -6 10 -9
15 l-6 9 -12 12 -12 12 -12 8 c-12 9 -20 14 -35 21 l-9 5 -13 4 c-15 6 -34 10
-48 13 l-9 1 -21 1 -20 0 -8 -1z"/>
<path d="M285 727 l-3 -4 4 3 c4 4 4 5 4 5 0 0 -2 -2 -5 -4z"/>
<path d="M322 721 c-4 -4 -7 -8 -7 -8 0 -2 27 -34 28 -34 1 0 3 2 6 4 l5 4 3
4 3 4 0 3 0 4 -3 4 c-1 3 -4 5 -5 6 l-2 2 -3 0 -2 0 0 2 c0 1 -1 4 -2 6 l-2 4
-3 1 c-1 1 -3 1 -5 1 l-3 0 -8 -7z m14 -9 l0 -2 -1 -2 -1 -1 -2 2 c-1 1 -3 2
-3 3 l-1 2 2 2 1 1 2 -1 2 -1 1 -3z m13 -15 l0 -2 -2 -1 -2 -2 -2 3 c-2 2 -3
4 -3 5 l-1 1 3 1 3 2 2 -2 2 -2 0 -3z"/>
<path d="M685 726 c-2 -1 -3 -3 -4 -5 l-1 -2 0 -4 0 -4 2 -4 1 -5 0 -3 0 -2
-3 -1 -3 0 -3 6 -3 5 -3 -4 -4 -5 2 -4 3 -4 5 -3 4 -3 3 0 c6 0 12 5 14 12 l1
4 -2 6 c-1 3 -2 7 -2 8 l0 3 2 0 2 0 3 -4 c1 -2 3 -4 3 -4 1 0 6 5 6 6 0 2 -4
7 -8 10 l-4 3 -4 0 -4 0 -3 -2z"/>
<path d="M279 719 l-2 -2 2 2 c3 2 3 3 3 3 -1 0 -2 -1 -3 -3z"/>
<path d="M748 717 c4 -6 7 -8 3 -4 -4 6 -7 9 -7 9 -1 0 1 -2 4 -5z"/>
<path d="M750 718 c0 -1 0 -1 1 -1 0 0 0 0 0 1 0 0 0 0 0 0 -1 0 -1 0 -1 0z"/>
<path d="M275 714 l-1 -1 1 1 c1 1 2 1 2 2 0 0 -1 0 -2 -2z"/>
<path d="M270 708 c-1 -2 -2 -3 -2 -3 1 0 2 1 3 3 1 2 2 3 2 3 -1 0 -2 -1 -3
-3z"/>
<path d="M464 710 l-1 0 0 -13 0 -12 -3 -2 -2 -1 0 -10 1 -9 -5 -1 -4 0 0 -13
c0 -6 0 -12 0 -12 0 0 6 1 13 2 7 2 15 3 17 3 l5 1 0 3 c0 2 0 6 0 8 1 2 0 7
0 9 l0 5 -1 1 c-1 0 -2 0 -3 -1 l-1 -1 -1 -6 0 -6 -1 0 -1 1 -1 12 c0 6 0 12
0 13 l0 2 -2 1 -3 0 0 12 0 12 -2 1 c-1 2 -4 3 -5 1z"/>
<path d="M756 705 c6 -8 8 -10 3 -2 -2 3 -5 6 -5 7 -1 0 0 -2 2 -5z"/>
<path d="M264 700 c-2 -3 -3 -5 -3 -5 1 0 2 2 4 5 2 2 3 4 3 4 -1 0 -2 -2 -4
-4z"/>
<path d="M302 700 l-3 -2 -4 -4 -4 -4 -2 -5 -1 -5 0 -8 0 -7 1 -2 2 -3 3 -1 3
0 0 -4 -1 -4 2 -1 1 0 5 1 4 1 2 -1 1 -1 3 0 3 1 0 4 0 4 3 0 4 1 2 3 1 3 0 8
0 8 -2 5 c-3 6 -6 10 -11 12 -5 2 -7 2 -12 1z m0 -25 l1 -3 -1 -3 c0 -1 -2 -2
-3 -3 l-1 0 -3 1 -2 1 0 3 0 3 2 1 c1 1 3 2 4 2 l2 0 1 -2z m16 1 c1 -1 2 -2
2 -4 l1 -2 -2 -2 c-1 -1 -2 -2 -3 -2 0 0 -2 1 -3 2 l-3 2 0 2 c0 1 4 5 5 5 1
0 2 -1 3 -1z m-8 -13 l0 -3 -2 0 -3 0 0 3 0 2 3 0 2 0 0 -2z"/>
<path d="M513 686 l0 -15 -1 -1 -1 -1 0 -11 1 -10 10 -1 c6 -1 11 -1 12 -1 l1
1 0 27 0 27 -11 0 -11 0 0 -15z"/>
<path d="M712 699 c-5 -2 -9 -6 -12 -11 l-2 -5 0 -9 0 -9 1 -2 2 -3 3 -1 4 -1
-1 -3 0 -3 2 -1 c1 -2 4 -2 7 -1 l2 2 2 -1 2 -1 3 0 4 1 -1 4 0 4 3 0 3 1 2 2
1 2 1 6 0 7 -1 5 -2 6 -3 4 -4 5 -4 2 c-2 1 -5 2 -6 2 -2 0 -4 -1 -6 -2z m1
-25 l1 -2 -1 -3 -1 -2 -3 0 -3 0 -1 1 c0 1 -1 2 -1 3 l0 2 2 2 1 2 3 0 2 0 1
-3z m16 1 l2 -1 0 -3 0 -2 -2 -1 c0 -1 -2 -2 -3 -2 -1 0 -5 4 -5 6 0 1 3 5 5
5 1 0 2 -1 3 -2z m-9 -13 l0 -2 -2 0 c-2 -1 -3 0 -3 3 l0 2 2 0 3 0 0 -3z"/>
<path d="M764 695 c0 -1 0 -1 1 -1 0 0 0 0 0 1 -1 1 -1 1 -2 1 0 0 0 0 1 -1z"/>
<path d="M259 692 c-1 -1 -1 -2 -1 -2 1 0 1 1 2 2 1 1 1 2 1 2 -1 0 -1 -1 -2
-2z"/>
<path d="M766 692 c0 -1 0 -1 1 -1 0 0 0 0 0 1 -1 1 -1 1 -2 1 0 0 0 0 1 -1z"/>
<path d="M768 689 c0 -1 0 -1 1 -1 0 0 0 0 0 1 -1 1 -1 1 -2 1 0 0 0 0 1 -1z"/>
<path d="M256 688 l0 -1 1 0 c0 1 1 1 1 2 0 0 -1 0 -2 -1z"/>
<path d="M254 688 c0 -1 0 -1 1 -1 0 0 0 0 0 1 0 0 0 0 0 0 -1 0 -1 0 -1 0z"/>
<path d="M543 687 c-1 0 -1 -10 0 -22 l0 -21 2 0 c2 0 4 0 6 0 l3 -1 0 8 c1 4
1 14 1 22 l1 15 -7 0 -6 0 0 -1z"/>
<path d="M489 686 c-1 0 -1 -9 0 -18 1 -10 1 -19 1 -20 l0 -3 7 0 c4 1 7 1 8
1 l1 1 -1 20 0 20 -8 0 -8 0 0 -1z"/>
<path d="M771 684 c0 -2 1 -3 2 -3 0 0 -1 1 -1 3 -1 2 -2 3 -3 3 0 0 1 -1 2
-3z"/>
<path d="M254 685 l0 -1 1 0 c1 1 1 2 1 2 -1 0 -1 -1 -2 -1z"/>
<path d="M253 683 c0 -1 0 -1 1 -1 0 0 0 0 0 1 0 0 0 0 0 0 -1 0 -1 0 -1 0z"/>
<path d="M251 678 c-1 -2 -2 -3 -2 -3 1 0 2 1 3 3 0 2 1 3 1 3 -1 0 -2 -1 -2
-3z"/>
<path d="M775 676 c1 -2 2 -4 3 -4 0 0 -1 2 -2 4 -1 2 -2 4 -3 4 0 0 1 -2 2
-4z"/>
<path d="M248 674 c0 -1 0 -1 1 -1 0 0 0 0 0 1 0 0 0 0 0 0 -1 0 -1 0 -1 0z"/>
<path d="M580 674 c-1 -1 1 -36 1 -37 0 0 4 0 8 -1 l7 0 0 17 1 18 -2 1 -1 1
-7 1 c-3 0 -7 0 -7 0z"/>
<path d="M247 672 c0 -1 0 -1 1 -1 0 0 0 0 0 1 0 0 0 0 0 0 -1 0 -1 0 -1 0z"/>
<path d="M436 670 c-3 -1 -7 -1 -8 -2 l-2 0 0 -16 0 -17 1 0 c1 -1 14 0 15 1
l0 1 0 16 0 16 -1 1 0 1 -5 -1z"/>
<path d="M781 666 c1 -3 3 -6 3 -6 0 1 -5 11 -6 11 0 0 1 -2 3 -5z"/>
<path d="M245 669 c0 -1 0 -1 0 -2 1 0 1 1 1 1 1 2 0 3 -1 1z"/>
<path d="M560 655 l0 -14 6 -1 6 -1 1 1 c0 1 0 8 0 15 l1 14 -7 0 -7 0 0 -14z"/>
<path d="M244 666 c0 -1 0 -1 1 -1 0 0 0 0 0 1 0 0 0 0 0 0 -1 0 -1 0 -1 0z"/>
<path d="M243 664 c0 -1 0 -1 1 -1 0 0 0 0 0 1 0 0 0 0 0 0 -1 0 -1 0 -1 0z"/>
<path d="M602 663 c0 -3 0 -27 1 -27 0 0 2 -1 6 -1 l5 0 0 11 c0 12 0 15 0 17
l-1 1 -5 0 -6 0 0 -1z"/>
<path d="M240 662 c0 -1 0 -1 1 -1 0 0 0 0 0 1 0 0 0 0 0 0 -1 0 -1 0 -1 0z"/>
<path d="M242 662 c0 -1 0 -1 1 -1 0 0 0 0 0 1 0 0 0 0 0 0 -1 0 -1 0 -1 0z"/>
<path d="M398 661 l-2 -2 0 -12 1 -11 10 -1 c5 0 11 0 12 0 l2 1 0 9 0 9 -1 0
c0 0 -2 -1 -4 -2 l-4 -1 -2 1 -1 1 0 5 0 4 -5 0 -5 0 -1 -1z"/>
<path d="M240 657 c-2 -3 -1 -4 1 -1 0 2 1 3 1 4 0 0 -1 -1 -2 -3z"/>
<path d="M784 659 c0 -1 1 -3 2 -4 0 -1 1 -2 1 -1 0 0 -1 2 -1 3 -1 1 -2 2 -2
2z"/>
<path d="M381 654 l-3 -1 0 -2 c0 0 -1 -2 -2 -3 l-3 -3 -5 -1 c-3 -1 -6 -2 -7
-2 l0 -1 1 -2 c1 -1 2 -3 2 -3 l2 -1 11 0 12 0 0 2 c1 2 1 8 0 13 l0 5 -2 0
c-2 0 -4 -1 -6 -1z"/>
<path d="M623 653 c-1 -3 -1 -9 0 -14 l0 -4 8 0 7 0 1 7 c0 5 0 9 0 9 l-1 2
-5 1 c-3 1 -6 1 -7 1 l-3 0 0 -2z"/>
<path d="M238 651 c-1 -2 -1 -3 0 -1 1 1 1 2 1 3 -1 0 -1 -1 -1 -2z"/>
<path d="M787 652 c0 -1 0 -2 1 -3 l1 -1 0 1 c0 0 0 1 -1 2 l-1 2 0 -1z"/>
<path d="M236 646 c-1 -2 -1 -3 0 -1 1 1 1 2 1 3 -1 0 -1 -1 -1 -2z"/>
<path d="M789 647 c0 -1 0 -2 1 -3 l1 -1 0 1 c0 0 0 1 -1 2 l-1 2 0 -1z"/>
<path d="M645 645 c-1 0 0 -6 0 -9 l0 -1 5 0 c3 0 7 1 8 1 l3 1 0 4 0 4 -8 0
c-5 0 -8 0 -8 0z"/>
<path d="M234 642 l0 -1 1 0 0 1 0 1 -1 0 0 -1z"/>
<path d="M792 640 c0 -1 1 -4 2 -5 l1 -3 -1 2 c0 1 0 3 0 4 0 1 -1 2 -2 3 l-1
1 1 -2z"/>
<path d="M233 639 l0 -1 1 0 0 1 0 1 -1 0 0 -1z"/>
<path d="M495 637 c-5 -1 -13 -2 -18 -3 l-8 -1 -12 -4 c-13 -5 -24 -10 -34
-17 l-7 -4 -4 -5 -5 -5 0 -3 0 -4 3 -4 c2 -3 5 -5 7 -7 l3 -2 2 0 2 0 -4 4 -5
5 0 3 -1 3 2 3 c1 1 4 5 7 7 l6 5 11 5 12 6 12 4 c6 2 16 5 22 6 l11 2 14 0
15 0 7 -1 c11 -2 26 -6 33 -8 10 -4 29 -14 35 -18 l6 -4 2 -3 c1 -4 1 -7 -1
-12 l-2 -4 -2 -2 c-2 0 -3 -2 -3 -2 l0 -1 2 1 c4 1 8 4 11 8 l3 4 0 5 0 5 -6
5 c-6 6 -15 12 -23 17 -10 4 -25 10 -36 12 l-10 3 -12 1 c-14 1 -23 1 -35 0z"/>
<path d="M232 636 l0 -1 1 0 0 1 0 1 -1 0 0 -1z"/>
<path d="M231 633 l0 -1 1 0 0 1 0 1 -1 0 0 -1z"/>
<path d="M230 629 l0 -1 1 1 c0 1 0 1 0 2 l-1 0 0 -2z"/>
<path d="M795 630 c0 -1 1 -2 1 -3 l1 -2 0 1 c0 1 -1 2 -1 4 l-1 2 0 -2z"/>
<path d="M229 626 l0 -1 1 0 0 1 0 1 -1 0 0 -1z"/>
<path d="M244 622 c0 -5 2 -13 4 -17 3 -6 7 -10 11 -12 l4 -2 14 -2 c7 -1 20
-3 27 -3 7 -1 14 -2 16 -2 l2 -1 2 3 2 2 3 0 c2 0 7 0 10 -1 4 0 7 0 8 0 0 0
0 2 0 4 l0 3 -3 1 c-7 3 -42 14 -77 24 -9 2 -17 5 -18 5 -2 1 -4 1 -4 1 l-1 0
0 -3z"/>
<path d="M350 624 l-4 -2 -4 -3 -4 -3 0 -2 0 -2 9 -1 c5 -1 10 -3 12 -4 l4 -2
2 -3 3 -3 0 -6 -1 -6 -3 -4 -3 -4 -2 -2 -3 -1 -11 2 c-6 1 -12 2 -13 2 l-3 0
0 -1 c0 -1 1 -3 2 -6 l2 -4 5 -4 4 -4 7 -3 6 -3 4 0 5 1 4 3 5 3 3 4 4 5 4 8
3 8 1 7 0 8 -3 6 -2 5 -4 4 -3 3 -5 2 -4 2 -6 1 -6 0 -5 -1z"/>
<path d="M769 622 c-46 -13 -63 -18 -65 -19 l-3 -1 0 -2 c1 -4 5 -15 6 -16 1
0 7 0 13 1 7 1 18 3 25 3 7 1 15 3 18 4 l6 1 4 5 5 5 1 5 c1 2 2 7 3 11 l0 6
-1 0 c-1 0 -6 -2 -12 -3z"/>
<path d="M228 622 l0 -1 1 1 c0 1 0 1 0 2 l-1 0 0 -2z"/>
<path d="M797 623 c0 -1 1 -2 1 -3 l1 -2 0 1 c0 1 -1 2 -1 4 l-1 2 0 -2z"/>
<path d="M666 618 c-3 -1 -5 -2 -5 -2 0 -1 7 -8 10 -10 l2 -1 3 1 4 1 0 2 c1
2 1 5 -1 9 l-2 3 -3 0 -3 0 -5 -3z"/>
<path d="M227 618 l0 -1 1 1 c0 1 0 1 0 2 l-1 0 0 -2z"/>
<path d="M505 615 c-3 -1 -6 -3 -7 -4 l-2 -3 0 -9 0 -9 2 -3 3 -4 4 -2 4 -2 3
0 3 0 5 3 5 2 2 4 2 5 0 6 0 7 -2 3 -3 3 -4 3 -3 2 -4 0 -4 0 -4 -2z m2 -19
l1 -2 -2 -1 -2 -2 -2 0 -2 0 -1 3 0 2 1 1 c1 1 2 1 4 1 l2 0 1 -2z m17 0 c0
-2 0 -3 -1 -4 l-1 -1 -2 0 -3 1 0 2 -1 1 1 2 1 1 3 0 3 0 0 -2z m-11 -5 c0 -1
1 -2 1 -3 l0 -2 -2 0 c-3 0 -3 0 -2 4 0 2 1 3 3 1z"/>
<path d="M799 615 l0 -1 1 1 c0 1 0 1 0 2 l-1 0 0 -2z"/>
<path d="M226 612 c-1 -2 -1 -3 -1 -4 1 0 1 2 1 4 1 2 1 3 1 4 -1 0 -1 -2 -1
-4z"/>
<path d="M224 614 l0 -1 1 0 0 1 0 1 -1 0 0 -1z"/>
<path d="M466 612 c0 -1 1 -2 2 -3 l3 -3 6 -1 7 -1 1 -1 0 -1 -2 0 c-1 1 -3 1
-5 2 -2 0 -4 0 -5 1 l-2 0 0 -1 c0 -1 2 -4 4 -6 l5 -5 6 -3 c3 -2 7 -3 7 -3
l2 0 -2 3 -1 4 0 6 0 7 -1 1 c-1 0 -4 2 -6 3 l-5 1 -7 1 -7 0 0 -1z m21 -16
l2 -1 -4 1 c-3 0 -5 1 -6 1 l-1 1 4 -1 c2 0 4 -1 5 -1z"/>
<path d="M549 612 c-5 -1 -16 -4 -16 -5 l-1 -1 0 -8 c-1 -4 -1 -8 -1 -9 l-1
-2 1 0 c2 0 11 4 14 7 l3 2 -5 0 -4 -1 2 1 c1 0 3 1 5 1 l3 0 3 4 3 3 0 1 -1
1 -4 -1 c-3 -1 -6 -2 -8 -2 l-3 -1 1 1 c1 1 5 2 9 3 l8 2 0 2 0 3 -3 0 c-2 0
-4 0 -5 -1z m-11 -10 c0 -1 0 -1 0 -1 -1 0 -1 0 -1 1 0 0 0 0 1 0 0 0 0 0 0 0z"/>
<path d="M800 612 c0 -2 1 -4 1 -5 l1 -2 0 2 c0 1 -1 3 -1 4 l-1 3 0 -2z"/>
<path d="M651 604 c-9 -5 -21 -13 -21 -14 0 -2 2 -1 10 2 6 2 21 8 23 9 0 0 0
2 0 3 l-1 4 -2 0 -2 0 -7 -4z"/>
<path d="M224 604 l0 -2 1 1 c0 0 0 2 0 2 l-1 2 0 -3z"/>
<path d="M671 599 c-8 -4 -16 -7 -16 -8 l-1 -1 5 -11 c3 -6 6 -13 7 -16 1 -3
3 -5 3 -5 1 0 7 3 15 6 l13 7 2 3 1 3 0 5 -1 5 -4 9 -4 9 -2 0 -2 0 -16 -6z
m17 -13 l2 -5 0 -2 -1 -2 -3 -1 c-1 0 -3 -1 -3 -1 l-2 0 -2 6 c-2 3 -3 6 -3 6
0 1 6 4 8 4 l1 -1 3 -4z"/>
<path d="M802 602 l0 -2 1 1 c0 0 0 2 0 2 l-1 2 0 -3z"/>
<path d="M223 598 l0 -2 1 1 c0 0 0 2 0 2 l-1 2 0 -3z"/>
<path d="M803 597 l0 -3 1 1 c0 1 0 3 0 3 l-1 2 0 -3z"/>
<path d="M222 592 l0 -3 1 1 c0 1 0 3 0 3 l-1 2 0 -3z"/>
<path d="M804 590 l0 -3 1 1 c0 1 0 3 0 3 l-1 2 0 -3z"/>
<path d="M393 584 c-2 -6 -8 -17 -12 -23 -2 -3 -4 -6 -4 -7 l0 -1 20 -13 c20
-13 26 -16 26 -15 0 0 0 4 0 7 l0 7 -13 8 c-7 5 -15 10 -17 11 -2 1 -4 3 -4 4
0 1 6 8 8 9 l2 0 8 -4 c4 -3 9 -5 11 -6 l4 -1 -1 6 0 6 -2 1 c-7 4 -23 14 -24
15 l-1 0 -1 -4z"/>
<path d="M643 587 c-1 0 -6 -3 -12 -5 -12 -4 -24 -10 -26 -12 -1 -2 -2 -9 -1
-9 0 -1 2 0 3 1 2 0 4 1 5 1 l2 0 2 -3 c1 -2 3 -3 3 -3 1 0 6 2 12 5 6 3 11 5
12 5 l2 0 5 -11 5 -10 4 3 4 3 0 2 c0 0 -3 8 -7 16 -4 9 -7 16 -7 17 l0 1 -2
0 c-1 0 -3 0 -4 -1z"/>
<path d="M221 581 l0 -6 1 3 c0 2 0 4 0 6 l-1 3 0 -6z"/>
<path d="M248 582 c1 -2 2 -6 3 -8 l2 -5 4 -5 5 -4 6 -3 6 -3 8 0 c9 0 47 4
48 4 0 1 -1 2 -2 4 -2 2 -4 6 -6 9 l-3 6 -2 0 c-4 0 -48 5 -58 7 -6 1 -11 2
-11 2 -1 0 0 -2 0 -4z"/>
<path d="M773 585 c-2 -1 -17 -3 -33 -4 -16 -2 -29 -4 -30 -5 l-2 0 -1 -3 c0
-1 -1 -4 -2 -5 l-1 -3 -5 -3 -5 -4 4 0 c8 -2 36 -4 44 -4 l10 0 4 2 5 1 6 6 6
5 2 6 c2 3 3 7 4 9 l0 3 -1 0 c-1 0 -3 -1 -5 -1z"/>
<path d="M805 582 l0 -4 1 2 c0 1 0 3 0 4 l-1 2 0 -4z"/>
<path d="M788 576 l-3 -7 0 -14 c-1 -7 -2 -18 -2 -23 -5 -31 -16 -61 -32 -88
-12 -21 -32 -44 -50 -59 -12 -11 -19 -15 -32 -23 -35 -21 -77 -35 -123 -40
l-11 -1 -21 0 -21 0 -10 1 c-17 2 -33 5 -47 9 -28 7 -50 16 -74 31 -34 20 -59
44 -80 76 -17 26 -29 55 -35 86 -2 13 -4 28 -4 38 l0 8 -2 4 c-1 3 -2 5 -2 7
l-1 2 -1 -3 c-1 -2 -1 -8 -2 -13 l0 -9 1 -13 c1 -14 3 -25 7 -39 8 -35 27 -70
53 -101 15 -17 30 -30 52 -45 l15 -9 16 -8 c8 -4 20 -9 25 -11 20 -8 43 -13
66 -17 36 -5 78 -3 119 6 6 1 19 5 28 8 l16 5 11 5 c31 14 54 30 77 54 14 14
20 21 32 38 l8 13 6 12 c11 21 16 38 21 61 l3 15 1 12 1 13 0 11 -1 12 -1 1
-1 2 -2 -7z"/>
<path d="M806 571 l0 -5 1 2 c0 2 0 4 0 6 l-1 3 0 -6z"/>
<path d="M432 573 l-1 0 0 -5 -1 -4 2 -2 2 -2 3 0 2 0 0 7 0 7 -3 0 c-1 0 -3
0 -4 -1z"/>
<path d="M585 573 l-1 -1 0 -6 1 -5 3 -1 3 0 1 2 2 2 0 3 c0 2 0 4 -1 5 0 0
-2 1 -3 1 l-3 1 -2 -1z"/>
<path d="M444 567 l0 -6 67 0 68 0 0 3 c1 1 1 4 1 6 l-1 3 -67 0 -68 0 0 -6z"/>
<path d="M220 561 l0 -12 1 6 c0 3 0 9 0 12 l-1 6 0 -12z"/>
<path d="M218 563 c0 -1 0 -1 1 -1 0 0 0 0 0 1 0 0 0 0 0 0 -1 0 -1 0 -1 0z"/>
<path d="M629 556 c-6 -3 -16 -7 -21 -9 l-9 -4 0 -7 0 -7 2 0 3 1 5 -12 c4 -7
6 -13 7 -13 l1 -1 4 2 c2 1 4 2 4 3 0 1 -1 4 -3 7 -1 4 -3 9 -5 12 l-2 6 1 1
c1 1 2 1 3 1 l1 0 5 -12 c3 -7 6 -12 6 -12 1 0 9 5 9 6 0 0 -2 6 -5 13 -3 6
-5 11 -5 12 0 0 2 0 3 0 l3 1 4 -11 c3 -6 6 -11 6 -11 l1 -1 5 2 4 2 0 3 c-1
4 -14 33 -15 33 0 0 -6 -2 -12 -5z"/>
<path d="M807 559 c0 -1 0 -1 1 -1 0 0 0 0 0 1 0 0 0 0 0 0 -1 0 -1 0 -1 0z"/>
<path d="M437 553 c0 -1 3 -4 6 -7 l6 -6 8 -4 c9 -4 18 -7 31 -10 l8 -1 14 0
14 0 9 1 c4 1 12 3 17 5 l8 2 9 5 9 4 6 5 5 6 -1 0 0 1 -3 -1 c-1 0 -5 -2 -9
-4 -3 -2 -10 -6 -15 -7 l-8 -4 -13 -3 -12 -2 -16 0 -16 0 -9 1 c-5 1 -13 4
-18 6 l-10 3 -8 5 c-5 3 -10 5 -10 6 l-2 0 0 -1z"/>
<path d="M330 552 c-4 -1 -55 -7 -57 -7 l-2 0 1 -2 c1 -1 4 -4 8 -8 l7 -6 6
-4 6 -3 3 0 4 0 14 5 c20 7 46 16 47 17 l1 0 -1 1 0 2 -9 0 -9 0 -5 3 -5 3 -2
0 c-2 0 -4 -1 -7 -1z"/>
<path d="M678 551 l-3 -1 -3 -5 c-2 -2 -3 -4 -3 -5 1 0 39 -14 46 -16 3 -1 7
-2 9 -2 l3 0 6 3 6 3 6 6 c4 4 7 7 8 9 l1 2 -5 0 c-3 1 -13 2 -21 3 -9 0 -23
2 -31 3 -9 1 -15 2 -15 2 0 0 -2 -1 -4 -2z"/>
<path d="M806 545 l0 -6 1 3 c0 2 0 4 0 6 l-1 3 0 -6z"/>
<path d="M221 541 l0 -5 1 2 c0 2 0 4 0 5 l-1 3 0 -5z"/>
<path d="M582 538 l-4 -3 0 -12 0 -12 -4 -5 -3 -4 -4 -3 -4 -2 -8 0 -8 1 -5 2
c-4 2 -8 5 -11 7 l-4 3 -2 4 -1 5 -12 0 -12 0 -2 -5 -1 -4 -5 -4 c-7 -5 -13
-8 -21 -9 l-6 -1 -3 1 c-2 1 -5 2 -7 3 l-3 3 -3 4 -2 5 0 12 0 11 -5 2 -4 2
-1 0 -1 -1 0 -3 c0 -2 1 -8 2 -13 l1 -10 -1 -3 -1 -2 -4 -3 -3 -2 0 -3 c0 -3
2 -7 7 -13 l3 -5 2 0 c2 0 6 1 10 2 l8 2 4 0 5 0 3 -3 3 -3 -1 -2 c-1 -1 -1
-2 -2 -3 l-1 0 0 -3 0 -2 3 -2 c3 -2 11 -5 22 -7 l5 -1 11 0 12 0 9 2 c5 2 11
3 13 4 l4 2 1 2 2 3 -2 3 -1 4 0 1 c1 1 2 3 3 4 l3 1 4 0 5 0 8 -2 9 -3 2 1
c3 0 8 7 10 12 l2 4 0 3 0 2 -4 2 -4 2 -2 3 -1 3 1 10 2 10 0 3 0 4 -1 1 c-1
0 -3 -1 -5 -2z m-66 -28 c1 -1 2 -4 3 -6 4 -8 8 -22 8 -25 l0 -2 -2 -3 c-2 -1
-3 -2 -4 -2 -1 0 -3 2 -5 3 l-3 4 -2 -1 c-1 -1 -3 -2 -4 -4 l-2 -2 -3 0 -2 1
-2 2 -2 2 1 4 c0 2 2 9 4 16 l4 12 2 1 2 2 3 0 3 0 1 -2z"/>
<path d="M219 539 c0 -1 0 -1 1 -1 0 0 0 0 0 1 0 0 0 0 0 0 -1 0 -1 0 -1 0z"/>
<path d="M371 538 c-1 0 -13 -5 -27 -10 -25 -9 -32 -12 -31 -13 0 0 6 -2 13
-5 l13 -4 2 0 3 1 19 13 20 13 0 1 c0 2 -8 6 -12 4z"/>
<path d="M222 531 l0 -3 1 1 c0 1 0 3 0 4 l-1 2 0 -4z"/>
<path d="M666 529 c0 -2 0 -6 0 -7 l-1 -3 10 -6 10 -6 3 0 c4 0 12 2 20 6 l7
3 -2 1 c-1 0 -12 4 -24 9 -12 4 -22 8 -22 8 -1 0 -1 -2 -1 -5z"/>
<path d="M805 531 l0 -3 1 1 c0 1 0 3 0 4 l-1 2 0 -4z"/>
<path d="M223 524 l0 -3 1 1 c0 1 0 3 0 4 l-1 2 0 -4z"/>
<path d="M804 524 l0 -3 1 1 c0 1 0 3 0 3 l-1 2 0 -3z"/>
<path d="M224 518 l0 -2 1 1 c0 0 0 2 0 2 l-1 2 0 -3z"/>
<path d="M400 516 c-5 -2 -9 -3 -9 -3 0 -1 2 -3 5 -6 l5 -5 2 -5 c4 -7 6 -17
6 -23 0 -3 0 -5 1 -5 1 0 20 8 20 9 0 0 -2 2 -4 4 l-3 4 -2 4 -2 4 0 3 c0 2 1
6 1 9 l1 6 -1 2 c0 1 -2 3 -4 4 l-3 2 -3 0 -2 0 -8 -4z"/>
<path d="M803 518 l0 -3 1 1 c0 1 0 3 0 3 l-1 2 0 -3z"/>
<path d="M225 513 l0 -3 1 1 c0 1 0 3 0 3 l-1 2 0 -3z"/>
<path d="M802 512 l0 -2 1 1 c0 0 0 2 0 2 l-1 2 0 -3z"/>
<path d="M379 509 c-2 -1 -4 -2 -4 -2 0 0 2 -2 5 -4 l5 -4 3 -5 c2 -2 4 -7 5
-10 l2 -5 1 -9 2 -9 2 2 3 3 0 6 0 7 -2 7 -3 8 -3 5 c-3 5 -9 11 -11 11 -1 0
-3 -1 -5 -1z"/>
<path d="M226 507 l-1 -3 1 1 1 0 0 -2 c0 -1 0 -1 1 -1 0 1 0 2 -1 4 l-1 4 0
-3z"/>
<path d="M801 507 l0 -2 1 1 c0 0 0 2 0 2 l-1 2 0 -3z"/>
<path d="M800 502 l0 -1 1 1 c0 1 0 1 0 2 l-1 0 0 -2z"/>
<path d="M228 499 l0 -1 1 1 c0 1 0 1 0 2 l-1 0 0 -2z"/>
<path d="M353 498 c-5 -2 -9 -4 -9 -4 l-1 -1 3 -2 c4 -2 9 -7 12 -13 3 -5 7
-15 7 -23 l1 -6 2 0 c0 0 6 2 11 4 l10 5 1 2 1 3 -1 8 -1 8 -3 5 c-4 8 -6 11
-11 14 l-4 3 -5 0 -4 0 -9 -3z"/>
<path d="M226 500 c0 -1 0 -1 1 -1 0 0 0 0 0 1 0 0 0 0 0 0 -1 0 -1 0 -1 0z"/>
<path d="M799 498 l0 -1 1 1 c0 1 0 1 0 2 l-1 0 0 -2z"/>
<path d="M229 496 l0 -1 1 0 0 1 0 1 -1 0 0 -1z"/>
<path d="M798 493 c-1 -1 -1 -2 -1 -3 1 0 1 1 1 3 1 1 1 2 1 3 -1 0 -1 -1 -1
-3z"/>
<path d="M230 493 c0 -1 1 -3 2 -5 l1 -3 0 1 c0 1 -1 3 -1 5 l-2 4 0 -2z"/>
<path d="M327 489 l-4 -2 -2 -3 -2 -4 -1 -5 -1 -5 1 -7 1 -6 3 -6 2 -5 4 -4
c2 -2 5 -5 6 -6 l3 -1 4 0 4 0 3 1 3 2 2 3 c1 2 2 6 3 8 l1 5 -1 7 -1 6 -3 6
c-3 6 -7 12 -12 15 l-4 3 -2 0 c-2 0 -4 -1 -7 -2z m12 -14 c3 -3 6 -9 7 -15
l0 -5 0 -3 -1 -3 -2 -2 -3 -1 -3 1 -4 2 -2 3 c-1 2 -3 6 -4 10 l-1 6 0 3 c1 1
2 4 3 5 l2 2 3 -1 c1 0 4 -1 5 -2z"/>
<path d="M796 488 l0 -1 1 0 0 1 0 1 -1 0 0 -1z"/>
<path d="M795 485 c0 0 0 -2 -1 -3 l0 -1 1 1 1 2 0 1 -1 2 0 -2z"/>
<path d="M233 483 l0 -1 1 0 0 1 0 1 -1 0 0 -1z"/>
<path d="M796 482 c0 -1 0 -1 1 -1 0 0 0 0 0 1 0 0 0 0 0 0 -1 0 -1 0 -1 0z"/>
<path d="M234 478 l1 -3 0 1 1 0 0 -2 -1 -1 1 1 1 1 -1 3 -2 4 0 -4z"/>
<path d="M599 476 c-2 -3 -4 -5 -4 -5 -1 0 -1 0 -1 -1 0 0 5 -3 11 -6 6 -3 15
-7 19 -9 l7 -3 1 -2 1 -1 -1 -3 c-1 -1 -1 -2 -2 -2 0 0 -9 4 -20 8 -10 5 -19
8 -20 8 l-1 1 0 -3 0 -3 2 -1 c2 -2 25 -13 34 -16 l7 -3 1 1 c1 1 4 5 7 10 l5
9 0 3 0 3 -20 9 c-11 6 -21 10 -22 10 l-2 0 -2 -4z"/>
<path d="M793 479 c0 0 0 -2 -1 -3 l0 -1 1 1 1 2 0 1 -1 2 0 -2z"/>
<path d="M791 472 c-1 -2 -1 -3 0 -1 1 1 1 2 1 3 -1 0 -1 -1 -1 -2z"/>
<path d="M237 473 c0 -1 0 -2 1 -3 l1 -1 0 1 c0 0 0 1 -1 2 l-1 2 0 -1z"/>
<path d="M449 472 l-1 -1 1 -13 1 -12 2 -6 1 -5 16 -16 16 -16 5 -2 c3 -2 8
-3 11 -4 l5 -1 8 0 9 0 6 2 6 2 5 3 5 3 12 13 c7 7 13 14 14 15 0 1 2 5 2 8
l2 5 1 12 1 12 -1 1 c-1 1 -2 1 -4 1 l-2 0 -2 -2 -2 -1 -2 -10 -3 -10 -3 -5
c-1 -2 -2 -4 -3 -4 l-1 0 0 4 -1 4 -3 -7 -3 -6 -3 -3 -4 -2 -7 -2 c-3 -2 -9
-3 -12 -3 l-5 -1 -2 1 -3 1 -1 -1 0 -1 -3 0 c-2 1 -6 1 -9 2 l-5 1 -6 3 c-3 1
-6 4 -7 5 -1 1 -3 4 -4 6 -2 3 -4 5 -4 5 l-1 0 0 -4 0 -3 -1 1 c-1 1 -3 4 -5
8 l-3 6 -1 7 -2 7 -2 2 -2 2 -3 0 -3 0 0 -1z"/>
<path d="M789 468 l0 -1 1 0 0 1 0 1 -1 0 0 -1z"/>
<path d="M239 468 c0 -1 0 -2 1 -3 l1 -1 0 1 c0 0 0 1 -1 2 l-1 2 0 -1z"/>
<path d="M788 466 c0 -1 0 -1 1 -1 0 0 0 0 0 1 0 0 0 0 0 0 -1 0 -1 0 -1 0z"/>
<path d="M552 463 l-2 -1 0 -5 0 -5 1 0 c1 0 2 1 3 1 l1 2 0 4 1 5 -2 1 -1 0
-1 -2z"/>
<path d="M468 459 l1 -5 2 -2 c1 0 2 -1 2 -1 l1 0 0 5 0 5 -2 1 c0 1 -2 2 -3
2 l-1 0 0 -5z"/>
<path d="M787 462 c-1 -2 -1 -3 0 -1 1 1 1 2 1 3 -1 0 -1 -1 -1 -2z"/>
<path d="M241 463 c0 -1 0 -1 1 -1 0 0 0 0 0 1 0 0 0 0 0 0 -1 0 -1 0 -1 0z"/>
<path d="M242 459 l-1 -1 1 1 1 0 0 -1 -1 -2 1 0 1 1 1 -4 2 -3 -1 -1 0 -1 1
0 1 1 1 -2 c0 -1 0 -3 0 -4 l0 -1 1 0 2 0 -5 9 c-2 5 -4 10 -4 10 -1 0 -1 -1
-1 -2z"/>
<path d="M477 460 l-1 0 1 -4 c0 -2 1 -5 2 -6 l1 -2 3 0 2 0 0 4 0 4 -2 3 c-3
2 -5 3 -6 1z"/>
<path d="M541 459 l-2 -1 0 -5 -1 -5 2 0 1 -1 3 1 2 2 0 3 c1 2 1 4 1 6 l0 2
-2 0 c-1 0 -2 -1 -4 -2z"/>
<path d="M781 449 c-3 -5 -5 -9 -5 -9 1 0 10 18 10 19 0 0 -3 -4 -5 -10z"/>
<path d="M488 456 l-1 -2 1 -3 0 -4 2 -1 c1 -1 3 -1 4 -1 l2 0 0 1 c0 3 0 10
-1 10 0 1 -2 1 -4 2 l-3 0 0 -2z"/>
<path d="M530 456 l-3 -1 0 -6 0 -5 3 0 4 1 1 2 1 2 0 4 0 4 -2 1 c-1 0 -3 -1
-4 -2z"/>
<path d="M500 455 l-1 0 0 -4 0 -5 1 -1 2 -2 4 0 4 1 0 5 0 5 -1 0 c-3 1 -8 2
-9 1z"/>
<path d="M514 454 l-1 0 0 -6 0 -5 5 0 5 0 0 2 c1 0 1 3 1 6 l0 4 -4 0 c-3 0
-5 0 -6 -1z"/>
<path d="M244 452 c0 -1 0 -1 1 -1 0 0 0 0 0 1 0 0 0 0 0 0 -1 0 -1 0 -1 0z"/>
<path d="M480 444 c0 -1 1 -3 3 -5 l2 -3 1 1 1 1 -1 2 c0 2 -4 5 -5 5 -1 0 -1
-1 -1 -1z"/>
<path d="M541 444 l-3 -1 -1 -4 c-1 -2 -1 -3 -1 -4 1 0 2 0 3 0 l2 1 2 3 c2 4
3 6 1 6 0 0 -2 -1 -3 -1z"/>
<path d="M490 440 l0 -2 3 -3 2 -3 2 0 1 0 -1 4 c0 2 -1 4 -1 4 0 1 -2 1 -3 2
l-3 0 0 -2z"/>
<path d="M531 441 c-2 0 -3 -1 -4 -1 l-1 -1 0 -4 c0 -2 0 -4 1 -4 1 0 4 2 6 5
l1 3 -1 1 0 2 -2 -1z"/>
<path d="M253 439 c1 -1 1 -2 2 -2 0 0 0 1 -1 2 -1 1 -1 2 -2 2 0 0 0 -1 1 -2z"/>
<path d="M500 438 c0 -2 1 -4 2 -5 l1 -2 2 0 c3 0 5 2 5 5 0 1 -1 2 -1 3 l-1
1 -4 0 -4 0 0 -2z"/>
<path d="M515 439 l-2 0 0 -3 c0 -1 0 -3 1 -4 l1 -2 2 0 3 0 1 1 1 2 0 3 1 3
-3 0 c-2 1 -4 1 -5 0z"/>
<path d="M775 439 c0 -1 0 -1 1 -1 0 0 0 0 0 1 0 0 0 0 0 0 -1 0 -1 0 -1 0z"/>
<path d="M773 435 c-1 -1 -1 -2 -1 -2 1 0 1 1 2 2 1 1 1 2 1 2 -1 0 -1 -1 -2
-2z"/>
<path d="M256 434 l1 -2 -1 -1 0 -1 1 0 1 1 1 -2 0 -1 -1 1 -1 0 0 -1 c1 0 2
0 2 0 1 0 2 -1 2 -2 l0 -1 -1 1 -1 0 0 -1 c1 0 2 0 3 -1 l1 0 -2 3 c0 1 -2 4
-3 6 -2 3 -4 4 -2 1z"/>
<path d="M766 424 c-3 -4 -5 -8 -5 -8 1 0 8 11 10 14 2 4 0 2 -5 -6z"/>
<path d="M674 430 c-4 -2 -9 -6 -11 -9 l-1 -3 0 -3 0 -4 1 -3 c1 -2 3 -4 4 -4
l2 -2 4 0 c2 0 5 0 7 1 l3 1 3 -1 2 0 0 -3 0 -3 -3 -2 c-2 -1 -4 -2 -5 -2 l-2
0 -1 -1 0 -2 1 -3 1 -4 2 0 c0 0 3 1 5 2 l5 2 3 4 3 3 1 4 1 4 -1 4 -1 4 -4 3
-3 3 -3 0 c-1 0 -4 -1 -6 -1 -4 -2 -6 -2 -8 -1 l-1 2 2 2 1 2 4 1 3 2 -1 3 c0
1 0 3 -1 4 l0 1 -2 0 c-1 0 -3 -1 -4 -1z"/>
<path d="M344 413 c-5 -10 -10 -18 -10 -19 0 -1 6 -6 11 -8 l4 -2 3 0 4 0 4 2
c1 1 4 3 5 5 4 5 8 13 8 17 l1 3 -1 3 c-1 2 -2 5 -4 6 -3 3 -12 10 -14 10 0 0
-5 -8 -11 -17z m19 -2 l0 -3 -2 -3 c0 -2 -3 -5 -5 -7 l-3 -4 -3 0 -3 0 0 2 c1
1 3 6 6 11 l6 10 2 -2 2 -1 0 -3z"/>
<path d="M265 420 c1 -2 2 -3 3 -3 0 0 -1 1 -2 3 -1 2 -2 3 -3 3 0 0 1 -1 2
-3z"/>
<path d="M269 415 c0 -1 0 -1 1 -1 0 0 0 0 0 1 -1 1 -1 1 -2 1 0 0 0 0 1 -1z"/>
<path d="M759 414 l0 -1 1 0 c0 1 1 1 1 2 0 0 -1 0 -2 -1z"/>
<path d="M270 413 c0 -1 1 -1 2 -2 l2 -1 -2 1 c-1 2 -2 2 -2 2z"/>
<path d="M378 406 c-1 -3 -5 -11 -9 -19 -3 -7 -6 -13 -6 -14 l0 -1 8 -4 c5 -3
10 -5 10 -5 l2 0 1 2 c0 1 1 3 1 5 l1 2 -5 2 c-3 1 -5 3 -5 3 0 2 3 7 4 7 0 0
2 -1 4 -2 1 -1 3 -2 3 -2 1 0 5 7 5 8 0 1 -2 2 -4 3 -3 0 -5 1 -5 2 0 1 3 6 4
6 0 0 2 -1 4 -2 2 -1 4 -2 5 -2 1 0 4 8 4 9 -1 0 -18 8 -19 8 0 0 -2 -3 -3 -6z"/>
<path d="M643 410 c-7 -3 -11 -6 -11 -7 0 0 2 -4 3 -9 10 -22 13 -30 14 -30 0
0 2 1 4 2 l4 2 0 2 c0 1 -1 4 -3 7 -1 3 -2 6 -2 6 0 1 3 -1 7 -5 l7 -6 4 3 c3
1 5 2 5 3 0 1 -5 5 -11 9 l-4 3 2 4 1 4 -1 2 c0 2 -1 4 -2 6 l-1 3 -3 2 c-2 0
-4 1 -5 1 -1 0 -5 -1 -8 -2z m9 -12 l1 -2 -2 -2 c-1 -1 -2 -2 -2 -2 -1 0 -4 5
-4 7 l0 2 2 0 c2 1 4 0 5 -3z"/>
<path d="M754 406 c-2 -3 -4 -5 -3 -4 2 1 8 10 8 10 -1 0 -3 -3 -5 -6z"/>
<path d="M274 408 c0 -1 1 -1 2 -2 l2 -1 -2 1 c-1 2 -2 2 -2 2z"/>
<path d="M274 405 c0 -1 0 -1 1 -1 0 0 0 0 0 1 0 0 0 0 0 0 -1 0 -1 0 -1 0z"/>
<path d="M277 403 l1 -1 -1 0 c0 0 0 -1 1 0 0 0 1 -1 2 -1 1 -1 1 0 0 1 -2 2
-4 3 -3 1z"/>
<path d="M617 398 c-5 -2 -9 -4 -9 -4 0 -1 2 -6 4 -13 3 -6 6 -15 7 -20 l3 -8
2 1 c4 1 19 7 19 8 0 0 -3 8 -4 8 0 0 -1 -1 -3 -1 -1 -1 -3 -2 -5 -2 l-2 -1
-1 3 c-1 2 -1 4 -1 4 0 0 2 2 5 3 2 0 4 1 4 2 0 0 -3 7 -4 7 l0 1 -4 -2 c-2 0
-4 -1 -4 -1 0 0 -1 1 -2 3 l-1 3 0 1 c1 1 2 1 2 1 1 0 3 1 4 1 l4 2 -1 4 -2 4
-1 0 c-1 0 -5 -2 -10 -4z"/>
<path d="M401 392 c-2 -5 -6 -14 -8 -20 l-5 -12 4 -2 c2 0 4 -1 4 -1 l2 0 4
11 4 11 0 -6 c0 -3 1 -9 1 -13 l2 -7 2 -2 c1 0 3 -1 4 -1 l2 0 6 19 c3 10 6
19 6 20 l1 2 -5 2 c-2 0 -5 1 -5 1 0 0 -1 -5 -3 -10 l-3 -10 0 7 c-1 4 -1 10
-2 12 l0 5 -4 2 c-1 0 -3 1 -3 1 -1 0 -2 -4 -4 -9z"/>
<path d="M747 397 l-2 -2 2 2 c2 1 3 2 3 3 0 0 -1 0 -3 -3z"/>
<path d="M281 398 c0 -1 1 -2 1 -1 0 0 2 -1 3 -2 l3 -2 -3 3 c-2 2 -3 3 -4 3
0 0 0 -1 0 -1z"/>
<path d="M740 390 c-2 -3 -4 -5 -4 -5 0 0 3 2 5 5 2 2 4 4 4 4 0 0 -3 -2 -5
-4z"/>
<path d="M598 392 c-2 -1 -4 -2 -4 -3 0 0 1 -4 2 -8 2 -4 3 -7 3 -8 0 0 -2 0
-4 -1 l-3 -1 -2 8 c-1 4 -2 7 -2 8 l-1 1 -4 -1 -4 -1 0 -4 c1 -4 9 -38 9 -39
1 0 11 3 10 3 0 0 0 4 -1 8 -1 4 -2 7 -2 8 0 0 2 0 4 1 l3 0 2 -6 c1 -4 2 -7
3 -8 l1 -1 4 1 4 1 0 1 c0 1 -2 9 -5 18 -3 9 -5 18 -6 20 l-1 3 -1 1 c-1 0 -3
-1 -5 -1z"/>
<path d="M290 388 l2 -2 -1 0 0 -1 1 0 1 1 3 -4 4 -4 0 0 -1 -1 1 1 c0 0 2 -2
4 -4 3 -2 0 1 -5 6 -5 6 -10 10 -10 10 0 0 0 -1 1 -2z"/>
<path d="M432 387 c-1 -2 -1 -4 -2 -5 l0 -2 3 -1 4 -1 -1 -2 c0 -1 -1 -8 -3
-16 l-4 -14 2 -1 c1 0 3 -1 5 -1 l3 0 4 16 4 16 1 -1 c1 0 3 0 4 0 l2 0 1 4
c1 2 1 4 1 5 -1 0 -22 6 -24 6 0 0 0 -1 0 -3z"/>
<path d="M563 383 c-5 -1 -9 -2 -10 -2 0 -1 0 -3 1 -5 l0 -5 4 0 4 1 2 -16 c1
-9 2 -17 3 -17 l1 -1 4 1 c2 0 4 1 4 1 1 0 0 7 -2 16 -1 9 -2 16 -2 17 l0 2 3
0 3 0 0 1 c0 1 0 2 0 2 0 1 0 2 0 4 l0 3 -3 0 c-1 0 -7 -1 -12 -2z"/>
<path d="M731 380 c-2 -3 -4 -5 -4 -5 0 0 3 2 5 5 2 2 4 4 4 4 0 0 -3 -2 -5
-4z"/>
<path d="M469 381 c-1 -3 -4 -42 -4 -43 1 0 4 -1 9 -1 l7 -1 4 2 3 2 2 2 3 3
0 5 0 5 -2 2 -2 1 2 3 2 4 0 4 0 4 -3 3 -2 3 -3 1 c-2 0 -6 1 -10 1 l-6 1 0
-1z m12 -11 c2 -1 2 -2 1 -4 l0 -2 -3 0 -2 0 0 4 0 4 1 0 c1 0 3 -1 3 -2z m1
-18 l1 -3 -1 -1 -1 -2 -3 0 -3 0 0 2 c1 0 1 3 1 4 l0 3 3 0 2 0 1 -3z"/>
<path d="M533 379 c-2 -1 -4 -4 -5 -5 l-2 -2 -1 -6 -1 -5 1 -7 1 -7 2 -4 2 -4
3 -2 4 -2 5 0 5 1 2 2 3 2 2 4 1 4 0 10 -1 10 -2 4 -2 5 -3 2 -3 2 -4 0 -4 0
-3 -2z m10 -12 l1 -2 1 -8 0 -8 -1 -2 -2 -2 -2 0 -3 1 -1 4 c0 3 -1 8 -1 11
l0 6 2 2 1 2 2 0 1 -1 2 -3z"/>
<path d="M297 379 c0 -1 0 -1 1 -1 0 0 0 0 0 1 0 0 0 0 0 0 -1 0 -1 0 -1 0z"/>
<path d="M497 371 c-1 -5 -1 -15 -1 -22 l0 -14 5 0 5 0 0 9 1 9 3 -10 3 -9 4
0 c2 0 5 0 5 1 l2 0 -2 3 c0 2 -2 6 -3 10 l-3 6 2 2 2 2 1 4 1 4 -1 2 c0 1 -1
4 -1 5 l-1 3 -3 2 -3 1 -8 0 -8 0 0 -8z m14 -2 c0 -1 1 -2 1 -4 l0 -2 -2 -1
-2 -1 -1 1 -1 0 0 4 0 4 2 0 c1 0 2 -1 3 -1z"/>
<path d="M720 369 c-3 -2 -8 -6 -10 -9 l-5 -4 4 3 c5 4 17 15 16 15 0 0 -3 -2
-5 -5z"/>
<path d="M305 371 c0 -1 0 -1 1 -1 0 0 0 0 0 1 0 0 0 0 0 0 -1 0 -1 0 -1 0z"/>
<path d="M307 370 c0 -1 0 -1 1 -1 0 0 0 0 0 1 0 0 0 0 0 0 -1 0 -1 0 -1 0z"/>
<path d="M314 365 c3 -2 8 -6 11 -9 l7 -4 -4 3 c-3 2 -8 6 -11 9 l-7 6 4 -5z"/>
<path d="M702 354 l-1 -1 1 1 c1 1 2 1 2 2 0 0 -1 0 -2 -2z"/>
<path d="M695 350 c-2 -2 -4 -3 -4 -4 0 0 2 1 5 3 2 2 4 3 4 4 0 0 0 0 -5 -3z"/>
<path d="M334 350 c3 -3 9 -6 9 -6 0 1 -3 2 -6 4 l-5 4 2 -2z"/>
<path d="M686 344 c-3 -2 -4 -4 -1 -2 2 1 6 4 5 4 0 0 -2 -1 -4 -2z"/>
<path d="M345 343 c0 -1 0 -1 1 -1 0 0 0 0 0 1 -1 1 -1 1 -2 1 0 0 0 0 1 -1z"/>
<path d="M347 342 c0 -1 1 -1 2 -2 1 -1 2 -1 2 -1 0 1 -1 1 -2 2 -1 1 -2 1 -2
1z"/>
<path d="M680 340 l0 -1 1 0 c0 1 1 1 1 2 0 0 -1 0 -2 -1z"/>
<path d="M353 338 c0 -1 0 -1 1 -1 0 0 0 0 0 1 -1 1 -1 1 -2 1 0 0 0 0 1 -1z"/>
<path d="M678 339 c0 -1 0 -1 1 -1 0 0 0 0 0 1 0 0 0 0 0 0 -1 0 -1 0 -1 0z"/>
<path d="M674 336 l-1 -1 2 1 c1 1 2 1 2 2 0 0 -1 0 -3 -2z"/>
<path d="M355 337 c0 -1 0 -1 1 -1 0 0 0 0 0 1 0 0 0 0 0 0 -1 0 -1 0 -1 0z"/>
<path d="M357 336 c0 -1 1 -2 3 -2 2 -1 3 -2 3 -2 0 1 -1 2 -3 3 -2 0 -3 1 -3
1z"/>
<path d="M671 335 c0 -1 0 -1 1 -1 0 0 0 0 0 1 0 0 0 0 0 0 -1 0 -1 0 -1 0z"/>
<path d="M669 334 c0 -1 0 -1 1 -1 0 0 0 0 0 1 0 0 0 0 0 0 -1 0 -1 0 -1 0z"/>
<path d="M666 332 l-1 -1 1 0 c0 0 1 0 2 1 0 1 0 1 -2 0z"/>
<path d="M671 333 c0 -1 0 -1 1 -1 0 0 0 0 0 1 0 0 0 0 0 0 -1 0 -1 0 -1 0z"/>
<path d="M364 332 c0 -1 0 -1 1 -1 0 0 0 0 0 1 0 0 0 0 0 0 -1 0 -1 0 -1 0z"/>
<path d="M362 331 c0 -1 0 -1 1 -1 0 0 0 0 0 1 0 0 0 0 0 0 -1 0 -1 0 -1 0z"/>
<path d="M366 331 c0 -1 0 -1 1 -1 0 0 0 0 0 1 0 0 0 0 0 0 -1 0 -1 0 -1 0z"/>
<path d="M658 328 c-3 -2 -5 -3 -5 -3 1 0 3 1 5 2 2 1 4 2 5 2 l1 -1 0 2 c0 0
0 1 0 1 0 0 -3 -1 -6 -3z"/>
<path d="M368 330 c0 -1 0 -1 1 -1 0 0 0 0 0 1 0 0 0 0 0 0 -1 0 -1 0 -1 0z"/>
<path d="M371 328 c0 -1 1 -1 2 -1 0 1 -1 1 -2 1 l-1 1 1 -1z"/>
<path d="M374 327 c0 -1 0 -1 1 -1 0 0 0 0 0 1 0 0 0 0 0 0 -1 0 -1 0 -1 0z"/>
<path d="M376 326 c0 -1 0 -1 1 -1 0 0 0 0 0 1 0 0 0 0 0 0 -1 0 -1 0 -1 0z"/>
<path d="M380 324 c1 -1 3 -2 4 -2 0 0 -1 1 -2 2 -1 0 -3 1 -3 1 -1 0 0 -1 1
-1z"/>
<path d="M647 323 c-2 -1 -3 -2 -2 -2 0 0 2 1 4 2 2 1 3 2 3 2 -1 0 -3 -1 -5
-2z"/>
<path d="M378 323 c0 -1 0 -1 1 -1 0 0 0 0 0 1 0 0 0 0 0 0 -1 0 -1 0 -1 0z"/>
<path d="M385 322 c0 -1 0 -1 1 -1 0 0 0 0 0 1 0 0 0 0 0 0 -1 0 -1 0 -1 0z"/>
<path d="M388 320 c1 -1 2 -1 3 -1 l1 0 -2 1 c-1 1 -2 1 -2 1 l-1 0 1 -1z"/>
<path d="M640 320 l-1 -1 1 0 c0 0 1 0 2 1 l2 1 -1 0 c-1 0 -2 0 -3 -1z"/>
<path d="M393 318 l1 0 -1 -1 0 -1 2 1 1 0 -1 1 c-1 1 -2 1 -2 1 l-1 0 1 -1z"/>
<path d="M636 318 l1 0 1 0 0 1 -1 0 -1 0 0 -1z"/>
<path d="M632 317 l-1 -1 1 0 c0 0 1 0 2 1 l2 1 -1 0 c-1 0 -2 0 -3 -1z"/>
<path d="M397 316 l1 0 1 0 0 1 -1 0 -1 0 0 -1z"/>
<path d="M400 315 l1 0 1 0 0 1 -1 0 -1 0 0 -1z"/>
<path d="M627 315 l-2 -1 1 0 c1 0 2 0 3 1 l2 1 -1 0 c-1 0 -2 -1 -3 -1z"/>
<path d="M406 313 c1 0 3 -1 4 -1 l2 0 -4 2 c-5 1 -6 1 -2 -1z"/>
<path d="M619 313 l-3 -2 1 0 c1 0 3 1 5 1 3 2 2 2 -3 1z"/>
<path d="M412 311 l1 0 1 0 0 1 -1 0 -1 0 0 -1z"/>
<path d="M415 310 l1 0 1 0 0 1 -1 0 -1 0 0 -1z"/>
<path d="M613 310 l1 0 1 0 0 1 -1 0 -1 0 0 -1z"/>
<path d="M419 309 c1 0 1 0 2 0 l0 1 -2 0 -1 0 1 -1z"/>
<path d="M608 309 l-2 -1 1 0 c1 0 2 1 4 1 l2 1 -2 0 c-1 0 -2 -1 -3 -1z"/>
<path d="M422 308 l1 0 1 0 0 1 -1 0 -1 0 0 -1z"/>
<path d="M426 307 c1 0 1 0 2 0 l0 1 -2 0 -1 0 1 -1z"/>
<path d="M603 307 c1 0 1 0 2 0 l0 1 -2 0 -1 0 1 -1z"/>
<path d="M610 308 c0 -1 0 -1 1 -1 0 0 0 0 0 1 0 0 0 0 0 0 -1 0 -1 0 -1 0z"/>
<path d="M430 306 c1 0 1 0 2 0 l0 1 -2 0 -1 0 1 -1z"/>
<path d="M599 306 c1 0 1 0 2 0 l0 1 -2 0 -1 0 1 -1z"/>
<path d="M607 307 c0 -1 0 -1 1 -1 0 0 0 0 0 1 0 0 0 0 0 0 -1 0 -1 0 -1 0z"/>
<path d="M434 305 c1 0 1 0 2 0 l0 1 -2 0 -1 0 1 -1z"/>
<path d="M595 305 c1 0 1 0 2 0 l0 1 -2 0 -1 0 1 -1z"/>
<path d="M430 305 c0 -1 0 -1 1 -1 0 0 0 0 0 1 0 0 0 0 0 0 -1 0 -1 0 -1 0z"/>
<path d="M438 304 c0 0 2 0 2 0 l2 1 -3 0 -2 0 1 -1z"/>
<path d="M591 304 c1 0 1 0 2 0 l0 1 -2 0 -1 0 1 -1z"/>
<path d="M443 303 c0 0 2 0 2 0 l2 1 -3 0 -2 0 1 -1z"/>
<path d="M586 303 c0 0 2 0 2 0 l2 1 -3 0 -2 0 1 -1z"/>
<path d="M448 302 c1 0 1 0 2 0 l0 1 -2 0 -1 0 1 -1z"/>
<path d="M581 302 c0 0 2 0 2 0 l2 1 -3 0 -2 0 1 -1z"/>
<path d="M454 301 l2 0 0 -1 -1 -1 3 1 4 0 -3 1 c-2 0 -4 1 -5 1 l-2 0 2 -1z"/>
<path d="M577 301 c1 0 1 0 2 0 l0 1 -2 0 -1 0 1 -1z"/>
<path d="M450 301 c0 -1 0 -1 1 -1 0 0 0 0 0 1 0 0 0 0 0 0 -1 0 -1 0 -1 0z"/>
<path d="M571 300 c0 0 2 0 2 0 l2 1 -3 0 -2 0 1 -1z"/>
<path d="M464 299 c1 0 3 0 4 0 l2 1 -4 0 -3 0 1 -1z"/>
<path d="M564 299 c1 0 3 0 3 0 l2 1 -3 0 -3 0 1 -1z"/>
<path d="M472 298 c1 0 3 0 4 0 l2 1 -4 0 -3 0 1 -1z"/>
<path d="M556 298 c1 0 3 0 4 0 l2 1 -4 0 -3 0 1 -1z"/>
<path d="M465 298 c0 -1 0 -1 1 -1 0 0 0 0 0 1 0 0 0 0 0 0 -1 0 -1 0 -1 0z"/>
<path d="M467 298 c0 -1 0 -1 1 -1 0 0 0 0 0 1 0 0 0 0 0 0 -1 0 -1 0 -1 0z"/>
<path d="M481 297 c2 0 4 0 5 0 l3 1 -5 0 -5 0 2 -1z"/>
<path d="M546 297 c1 0 3 0 4 0 l3 1 -5 0 -4 0 2 -1z"/>
<path d="M494 296 c2 0 4 0 6 0 l3 1 -6 0 -6 0 3 -1z"/>
<path d="M503 297 c0 -1 0 -1 1 -1 0 0 0 0 0 1 0 0 0 0 0 0 -1 0 -1 0 -1 0z"/>
<path d="M530 296 c2 0 4 0 6 0 l4 1 -7 0 -6 0 3 -1z"/>
<path d="M553 297 c0 -1 0 -1 1 -1 0 0 0 0 0 1 0 0 0 0 0 0 -1 0 -1 0 -1 0z"/>
</g>
</svg>
