<?xml version="1.0" standalone="no"?>
<!DOCTYPE svg PUBLIC "-//W3C//DTD SVG 20010904//EN"
 "http://www.w3.org/TR/2001/REC-SVG-20010904/DTD/svg10.dtd">
<svg version="1.0" xmlns="http://www.w3.org/2000/svg"
 width="1024.000000pt" height="1024.000000pt" viewBox="0 0 1024.000000 1024.000000"
 preserveAspectRatio="xMidYMid meet">
<metadata>
Created by potrace 1.16, written by Peter Selinger 2001-2019
</metadata>
<g transform="translate(0.000000,1024.000000) scale(0.250000,-0.250000)"
fill="#FFD300" stroke="none">
<path d="M0 2048 l0 -2048 2048 0 2048 0 0 2048 0 2048 -2048 0 -2048 0 0
-2048z m2146 1192 c344 -30 639 -189 834 -449 47 -62 101 -156 124 -215 l9
-22 -9 -7 c-14 -11 -20 -8 -27 10 -4 9 -18 41 -33 69 -141 279 -419 489 -738
558 -59 12 -120 20 -192 24 l-68 4 -68 -4 c-213 -14 -401 -76 -566 -186 -163
-109 -294 -260 -370 -427 -27 -58 -27 -58 -40 -49 l-10 6 2 9 c21 69 96 195
170 283 231 276 607 428 982 396z m-152 -77 c1 -3 3 -37 5 -77 l3 -72 24 0 24
0 0 -20 0 -20 -42 -3 c-23 -2 -43 -2 -44 0 -4 4 -13 186 -9 189 3 3 16 6 30 7
4 1 8 -1 9 -4z m124 -73 l0 -76 11 -1 c7 -1 13 0 15 2 2 2 6 35 8 73 3 39 6
71 8 73 1 1 11 1 22 0 l20 -3 -1 -10 c-6 -109 -13 -151 -29 -168 l-11 -12 -26
0 -26 0 -13 9 c-8 5 -17 15 -20 21 l-6 12 1 76 c1 42 3 77 4 79 1 2 11 3 22 2
l21 -1 0 -76z m-264 57 c1 -3 -1 -22 -6 -42 -11 -50 -12 -45 24 -95 18 -24 31
-45 29 -46 -2 -2 -12 -4 -23 -6 l-20 -2 -22 30 c-11 17 -22 29 -24 28 -2 -1 0
-15 4 -31 l8 -28 -5 -5 c-3 -3 -13 -6 -22 -8 l-17 -3 -2 6 c0 3 -6 25 -12 50
-6 25 -17 64 -24 87 l-13 42 10 4 c5 2 15 4 22 5 l13 1 7 -24 c4 -13 9 -27 10
-30 l1 -5 4 4 c3 2 7 17 9 33 l5 29 12 5 c16 7 30 7 32 1z m474 -6 l14 -7 -1
-10 c0 -6 -2 -15 -5 -22 l-4 -11 -7 6 c-4 4 -13 8 -20 9 l-13 3 -11 -12 c-14
-13 -25 -46 -25 -71 l0 -17 9 -11 8 -11 7 7 6 6 -1 27 c0 14 1 30 3 34 l5 8
16 -3 c9 -2 20 -5 23 -8 l5 -6 -8 -44 c-5 -25 -11 -48 -13 -52 l-4 -8 -24 0
c-67 0 -94 60 -64 142 l9 24 17 17 17 17 23 0 24 0 14 -7z m-622 -34 c3 -7 6
-17 7 -23 l1 -10 -12 1 -13 1 -9 -7 -10 -8 0 -22 0 -21 9 -19 c19 -38 35 -47
57 -31 14 10 18 8 24 -10 l5 -15 -8 -8 c-19 -21 -48 -25 -75 -9 l-17 10 -15
23 c-17 28 -27 58 -27 87 l0 22 9 14 c10 15 24 25 46 32 22 7 22 8 28 -7z
m752 -2 c9 -4 18 -10 21 -13 l5 -6 -8 -17 -8 -17 -14 10 -15 10 -9 -2 c-23 -7
-46 -49 -46 -84 l0 -17 7 -9 c4 -5 10 -8 12 -6 5 3 13 27 13 41 0 5 3 15 6 23
l5 14 19 -7 c10 -3 19 -8 21 -11 1 -3 -6 -27 -16 -55 l-17 -49 -9 -1 c-5 -1
-19 1 -31 5 l-22 7 -14 15 -13 15 -3 19 c-7 46 18 113 51 134 l13 8 18 0 c10
0 25 -3 34 -7z m133 -68 l9 -7 -5 -14 c-9 -20 -10 -21 -31 -9 l-20 11 -3 -4
c-3 -2 -6 -9 -7 -15 l-3 -10 17 -11 c18 -11 18 -13 10 -32 l-6 -14 -16 8 -17
8 -5 -4 c-3 -2 -7 -10 -9 -16 l-5 -12 20 -10 c11 -6 21 -13 22 -16 3 -6 -8
-30 -13 -30 -7 0 -71 29 -77 34 l-5 6 8 21 c8 19 42 103 58 140 l7 15 31 -15
c17 -9 35 -19 40 -24z m-1004 -30 c66 -80 85 -104 82 -108 -1 -2 -9 -7 -18
-12 l-17 -8 -14 16 c-16 19 -17 19 -30 11 l-9 -7 7 -18 8 -18 -4 -4 c-2 -2
-11 -7 -20 -11 l-16 -8 -4 8 c-3 6 -42 135 -52 176 -2 6 33 32 42 32 2 0 23
-22 45 -49z m1079 -11 c46 -31 56 -56 36 -91 l-11 -18 -17 -7 -17 -7 -5 -22
c-2 -11 -5 -29 -7 -38 -1 -10 -4 -18 -5 -19 -4 -2 -20 6 -32 17 l-7 5 6 29 6
28 -4 4 -4 4 -13 -24 c-6 -14 -13 -25 -15 -27 -4 -2 -33 17 -33 22 0 5 76 149
83 157 8 9 5 10 39 -13z m-1234 -61 c14 -23 31 -51 39 -64 7 -13 15 -23 16
-23 2 0 11 6 21 13 l17 12 5 -5 c3 -3 7 -12 9 -18 l4 -13 -34 -23 -34 -22 -8
7 c-4 3 -26 35 -48 71 -22 35 -43 67 -46 70 -3 4 -5 8 -5 9 0 3 32 27 37 27 1
0 13 -18 27 -41z m758 -5 c260 -41 477 -171 604 -362 12 -19 25 -38 29 -43 l6
-10 9 10 c6 8 139 85 160 94 l5 2 7 -12 6 -12 -7 -6 c-4 -3 -43 -25 -87 -49
-44 -24 -85 -46 -91 -51 -17 -12 -21 -9 -48 32 -118 179 -259 283 -471 347
-226 67 -448 47 -670 -62 -140 -69 -225 -143 -312 -270 -15 -22 -30 -43 -33
-47 l-6 -7 -74 38 c-80 41 -130 69 -132 76 0 2 3 9 7 14 l8 10 7 -4 c4 -3 38
-22 75 -42 71 -38 87 -49 83 -58 -4 -11 7 -10 13 1 73 118 135 185 238 256
128 87 273 140 440 161 43 5 187 2 234 -6z m-830 -29 c7 -6 15 -18 18 -27 l5
-16 11 -3 c14 -3 21 -10 35 -31 14 -23 14 -38 -1 -60 -11 -17 -47 -48 -55 -48
-6 0 -113 127 -113 134 0 3 13 18 30 33 l29 29 15 0 14 0 12 -11z m1439 -1
c15 -11 33 -32 33 -38 0 -2 -5 -9 -11 -15 l-11 -11 -14 16 -15 17 -6 -2 c-9
-4 -9 -14 1 -43 l8 -24 -4 -16 c-7 -28 -31 -48 -55 -48 -16 0 -47 20 -59 40
l-11 16 13 16 c16 20 17 20 29 -1 10 -19 19 -25 28 -22 l7 3 0 11 c0 7 -3 20
-6 29 -12 33 -7 58 13 75 l11 9 16 0 17 0 16 -12z m-922 -63 l7 -6 0 -44 0
-45 11 -8 10 -8 1 -52 c0 -54 6 -74 10 -33 l2 23 7 7 7 7 4 -5 5 -4 0 -45 c0
-24 -1 -46 -3 -48 -3 -2 -25 -7 -50 -12 -26 -4 -54 -9 -64 -12 -10 -2 -19 -2
-21 0 -2 1 -3 23 -2 48 l1 46 16 2 16 2 -1 38 -2 39 11 6 10 7 0 49 c0 28 1
51 3 52 4 5 14 3 22 -4z m-623 -41 c21 -9 35 -25 47 -50 l8 -20 1 -32 0 -32
-7 -10 c-4 -6 -13 -12 -20 -14 l-13 -5 -2 -15 -2 -16 -11 -1 c-6 -1 -14 0 -17
3 l-5 4 -18 -5 c-10 -2 -21 -3 -25 -2 l-6 3 2 14 3 14 -14 5 c-19 8 -25 20
-25 53 l0 28 7 21 c12 32 47 65 73 65 4 0 15 -4 24 -8z m885 -101 l1 -107 -5
-2 c-3 -1 -24 -1 -47 1 l-42 3 -1 44 -1 43 4 4 c2 3 4 27 4 61 0 31 1 58 3 59
1 2 21 3 43 2 l40 -1 1 -107z m757 100 c34 -17 56 -60 56 -107 0 -28 -6 -40
-24 -49 l-14 -6 0 -16 0 -15 -18 1 c-10 0 -20 1 -22 1 -2 0 -10 -2 -17 -4
l-13 -6 -8 8 -8 8 1 12 1 12 -13 3 c-8 3 -16 8 -19 13 l-6 9 -1 36 0 35 10 20
c12 23 28 39 47 48 19 8 27 7 48 -3z m-675 -115 c-1 -38 -3 -78 -5 -88 l-2
-18 -16 1 c-9 1 -18 3 -20 5 l-5 4 -2 80 c-2 44 -2 82 -1 84 2 3 14 4 27 3
l25 -1 -1 -70z m-201 -13 c1 -44 1 -81 -1 -82 -6 -3 -54 -6 -56 -2 -3 5 -12
157 -9 161 2 3 16 4 33 3 l31 -1 2 -79z m361 21 l5 -6 -2 -68 -2 -68 -26 1
c-14 0 -27 2 -29 5 -4 4 -11 139 -7 143 1 1 14 1 29 0 l27 -1 5 -6z m-612 -74
l0 -63 -5 -5 c-4 -3 -18 -6 -32 -7 l-26 -1 -1 64 -1 63 4 5 c5 5 53 13 57 10
2 -2 4 -31 4 -66z m524 6 c-1 -30 -2 -56 -3 -59 l-1 -4 -24 5 -23 4 -1 50 c-1
27 0 52 1 55 l2 5 25 -1 25 -1 -1 -54z m161 31 c4 -5 3 -102 0 -108 -4 -5 -32
-4 -39 2 l-7 5 0 50 c0 28 0 51 0 53 0 5 43 3 46 -2z m-819 -22 c1 -9 4 -18 7
-21 l5 -4 15 6 c20 8 22 6 22 -30 l0 -31 -6 -5 -5 -4 -44 1 -43 1 -1 48 -1 48
7 5 c4 3 15 5 25 4 l18 -1 1 -17z m-78 -23 c4 -21 3 -56 -2 -61 l-5 -5 -45 0
-44 0 -9 11 c-4 6 -8 12 -7 14 1 4 4 5 38 15 l18 4 8 14 c8 14 23 22 37 21 l8
-1 3 -12z m990 6 l10 -4 -2 -30 c-2 -17 -4 -32 -5 -34 -4 -6 -53 -5 -56 1 -2
2 -4 16 -5 31 l-2 27 5 9 5 9 20 -3 c10 -1 24 -4 30 -6z m95 -50 l0 -16 -10
-2 c-16 -5 -47 -4 -50 1 -3 4 -5 30 -4 35 1 1 15 1 33 0 l31 -2 0 -16z m-524
-14 c129 -12 254 -62 327 -131 l23 -22 0 -19 0 -19 -12 -16 c-11 -16 -27 -29
-41 -34 -11 -4 -12 4 -1 11 12 7 26 35 26 49 0 26 -28 49 -103 87 -102 51
-191 72 -293 71 l-58 0 -41 -9 c-118 -24 -247 -85 -282 -133 l-8 -11 4 -16 5
-16 14 -11 c16 -13 13 -21 -5 -12 -23 12 -45 43 -45 62 l0 13 19 20 c34 37
103 76 183 104 90 31 182 41 288 32z m-1109 -56 c143 -38 360 -105 372 -115
l7 -7 -1 -12 -1 -12 -16 1 c-9 1 -24 3 -34 5 l-18 4 -11 -4 c-6 -2 -12 -7 -15
-12 -2 -4 -7 -7 -11 -6 -4 1 -33 4 -63 8 -158 19 -184 25 -207 49 -28 30 -48
116 -25 108 3 -2 13 -5 23 -7z m476 -3 c23 -10 44 -31 57 -59 l11 -22 -2 -31
-1 -31 -15 -32 c-26 -55 -60 -87 -97 -92 l-18 -3 -26 12 c-31 15 -59 40 -70
63 -14 29 -10 30 57 18 l43 -9 11 6 c6 3 16 13 23 22 l11 17 2 23 2 24 -12 14
c-15 16 -33 24 -74 33 l-32 7 -2 6 -2 6 15 14 c9 7 24 16 34 19 l18 6 25 -2
c14 -1 33 -5 42 -9z m1641 -14 c-1 -12 -4 -31 -8 -42 l-7 -21 -18 -20 -19 -20
-21 -6 c-11 -3 -44 -8 -72 -12 -28 -4 -73 -10 -100 -14 l-49 -7 -3 5 c-4 6
-21 50 -24 61 l-2 9 12 4 c9 4 93 28 261 75 23 7 44 12 46 11 2 0 4 -11 4 -23z
m-410 -4 c15 -24 8 -43 -17 -49 l-11 -3 -23 22 -23 22 20 10 c11 6 26 11 33
11 l13 0 8 -13z m-634 -12 c9 -5 21 -16 26 -25 l11 -16 -3 -29 -3 -29 -11 -14
c-29 -39 -79 -39 -109 1 l-11 14 0 35 0 35 10 11 c23 25 62 33 90 17z m-144
-17 c11 -4 22 -9 25 -11 l5 -4 0 -25 c0 -14 2 -30 4 -36 l4 -11 -3 -4 -4 -4
-28 15 -27 14 -15 18 c-9 10 -14 20 -13 22 1 2 -3 10 -10 16 -7 7 -11 14 -10
16 l3 5 25 -2 c13 -1 33 -5 44 -9z m289 1 c1 -4 -1 -10 -3 -14 -3 -3 -6 -9 -7
-12 -1 -9 -21 -28 -31 -30 -4 0 -8 -3 -7 -5 1 -10 -42 -37 -53 -32 l-5 2 4 15
c2 8 3 23 2 34 -2 24 1 28 33 38 35 11 40 12 54 12 l12 -1 1 -7z m421 -19 c2
-4 4 -10 4 -14 l0 -6 -29 -13 c-16 -8 -44 -19 -63 -25 l-33 -11 -4 4 -4 4 30
20 c39 26 79 49 88 49 4 0 9 -3 11 -8z m133 -42 c9 -20 17 -44 18 -54 l2 -19
-7 -12 -6 -13 -54 -26 c-30 -15 -56 -25 -59 -24 -2 2 -8 13 -14 26 -5 12 -18
40 -28 61 l-18 40 4 4 c8 7 127 54 137 54 l9 -1 16 -36z m-1163 -54 c15 -10
37 -24 47 -30 l19 -11 -1 -20 -1 -21 -11 1 c-7 0 -26 9 -44 19 l-32 19 -9 -4
c-5 -3 -14 -11 -20 -19 l-11 -14 4 -4 c2 -3 32 -23 67 -45 l64 -41 2 -27 c2
-30 1 -34 -13 -27 -28 15 -171 110 -171 114 0 2 7 14 16 26 14 18 38 64 52 97
l4 11 5 -2 c3 -2 18 -12 33 -22z m1004 -42 c16 -35 30 -67 30 -71 0 -3 -7 -12
-16 -19 l-16 -13 -20 43 -19 42 -8 0 c-4 0 -26 -9 -49 -20 -49 -24 -48 -23
-59 -8 -10 13 -20 15 -37 6 -6 -3 -12 -5 -13 -3 -3 3 1 30 6 36 7 8 56 32 103
50 23 9 45 17 48 19 3 2 9 3 14 3 l7 -1 29 -64z m-1576 48 c20 -3 77 -10 128
-16 51 -6 94 -11 97 -12 2 -1 11 -13 19 -27 8 -14 18 -29 23 -34 l8 -8 -5 -3
c-7 -5 -148 -18 -188 -18 l-34 0 -24 11 -24 12 -18 20 c-31 35 -47 90 -24 83
3 -1 22 -4 42 -8z m2067 -3 c0 -6 -5 -22 -11 -35 l-11 -24 -23 -22 -23 -21
-19 -7 -19 -6 -36 0 c-20 0 -68 3 -107 6 l-70 7 -5 5 -6 5 15 9 c15 9 30 29
30 40 0 4 3 10 7 13 l7 6 117 15 c65 8 124 16 132 18 20 4 23 3 22 -9z m58
-58 c5 -108 -22 -257 -68 -373 -70 -178 -211 -352 -373 -459 -344 -229 -834
-256 -1216 -69 -331 162 -544 468 -571 818 l-4 60 3 32 c5 37 10 41 22 16 l8
-19 0 -29 c0 -224 103 -469 270 -641 251 -260 650 -378 1042 -307 356 65 624
260 766 559 54 113 82 228 90 369 l3 56 9 20 8 19 5 -4 c2 -2 5 -24 6 -48z
m-1417 -5 l0 -26 -9 -1 c-5 -1 -12 2 -17 7 l-8 8 3 15 c3 20 8 26 21 24 l10
-1 0 -26z m617 19 c7 -6 6 -27 -1 -38 l-7 -9 -12 1 -13 1 -1 21 c-1 13 1 24 3
28 l5 6 11 -3 c5 -1 12 -5 15 -7z m-53 -13 c1 -8 0 -18 -2 -23 l-4 -7 -267 1
-267 1 -1 17 c-1 10 -1 20 1 23 l2 6 268 -1 269 -1 1 -16z m280 -100 c14 -33
26 -63 26 -67 0 -7 -30 -25 -38 -22 -2 1 -12 20 -22 42 -9 23 -19 43 -22 45
l-5 5 -8 -5 -8 -4 19 -46 c11 -26 20 -48 20 -50 0 -2 -8 -8 -17 -14 l-17 -10
-4 5 c-3 3 -13 22 -22 43 -9 21 -19 41 -22 44 l-6 5 -5 -5 -6 -4 9 -23 c5 -13
14 -34 20 -48 5 -14 10 -27 10 -29 0 -6 -32 -21 -36 -17 -2 2 -14 25 -26 51
l-22 48 -9 0 -9 0 -1 24 -1 25 6 5 c3 3 41 20 83 38 l77 33 5 -4 c3 -3 17 -32
31 -65z m-801 16 c35 -20 93 -42 143 -52 l34 -8 64 1 64 0 50 11 c58 12 109
31 148 54 41 24 54 17 21 -12 -37 -32 -111 -63 -191 -79 l-36 -7 -56 1 -56 0
-32 7 c-51 11 -85 22 -122 39 l-34 16 -23 23 c-13 13 -22 26 -21 28 l2 4 7 -4
c4 -2 21 -11 38 -22z m-421 9 l21 -13 33 0 c61 -1 57 -6 -28 -36 -132 -47
-180 -62 -192 -62 -34 0 -130 74 -115 88 2 2 49 10 105 16 56 7 110 14 120 16
30 5 35 5 56 -9z m1409 5 c31 -4 89 -10 129 -14 80 -7 95 -10 97 -17 3 -8 -55
-61 -80 -73 -25 -13 -40 -15 -68 -6 -32 10 -177 63 -182 67 l-4 3 11 18 c9 13
29 28 39 30 0 0 26 -3 58 -8z m-434 -62 c1 -9 -1 -33 -5 -54 l-7 -38 7 -13 c3
-8 13 -16 21 -20 l15 -7 1 -11 c3 -21 -28 -71 -47 -77 -4 -1 -23 2 -43 8 -68
20 -105 8 -87 -29 l6 -14 -6 -10 c-8 -12 -25 -19 -74 -32 l-38 -9 -45 -1 c-24
0 -54 2 -66 5 -41 10 -73 20 -86 28 l-13 8 0 10 c0 5 2 11 4 12 2 1 6 6 8 10
l4 7 -12 13 -11 12 -20 0 c-10 0 -32 -4 -49 -8 -16 -4 -34 -8 -38 -8 l-8 0
-15 19 c-32 43 -34 55 -9 78 20 20 20 20 12 70 -4 20 -6 43 -5 50 l1 13 10 -1
c6 -1 15 -4 20 -9 l10 -7 0 -44 0 -43 10 -20 c11 -21 28 -36 51 -42 l13 -3 24
3 c30 5 57 17 83 36 l20 16 6 17 6 17 46 1 47 1 10 -19 c11 -23 32 -41 65 -56
l23 -10 30 -2 30 -2 18 10 18 9 12 20 12 19 0 49 0 48 16 9 c20 11 24 10 25
-9z m-828 4 c5 -4 9 -9 8 -11 -2 -8 -159 -111 -169 -111 -10 0 -97 31 -103 36
-7 6 13 15 117 53 56 21 105 39 108 40 9 4 28 0 39 -7z m1245 -48 c39 -14 73
-29 76 -32 l5 -6 -23 -10 c-30 -13 -60 -22 -75 -22 l-12 0 -40 25 -39 25 3 10
c1 5 3 17 3 26 1 9 1 17 2 19 0 3 3 2 100 -35z m-1104 -27 c7 -5 15 -12 17
-16 l5 -7 -5 -23 c-10 -45 -4 -67 23 -95 l16 -17 -5 -4 c-8 -7 -73 -33 -76
-30 -2 1 -3 9 -3 18 0 43 -22 99 -52 132 -20 22 -20 22 18 38 34 15 45 16 62
4z m-110 -43 c20 -18 38 -48 48 -82 l10 -30 0 -26 0 -25 -8 -10 -7 -9 -4 4
c-2 2 -6 18 -8 35 -9 57 -30 99 -65 125 -22 17 -22 20 -3 26 20 5 22 5 37 -8z
m-53 -36 c19 -12 29 -23 44 -54 l11 -21 4 -33 5 -34 -4 -10 -4 -9 -41 -18
c-23 -9 -44 -17 -46 -15 -3 1 -7 12 -8 25 -8 64 -37 117 -77 142 -7 4 -12 9
-11 10 7 7 74 29 90 29 l18 0 19 -12z m-142 -39 c32 -22 57 -64 65 -110 l5
-27 -5 -19 c-10 -39 -29 -57 -60 -57 -43 0 -83 50 -92 114 l-4 27 4 20 c5 28
18 47 38 55 22 10 30 10 49 -3z m1141 -72 l78 -39 1 -11 2 -11 -21 -36 c-11
-19 -23 -37 -26 -40 l-6 -5 -29 12 c-78 33 -134 61 -141 70 -7 11 -6 25 3 22
94 -41 157 -67 160 -67 5 0 10 18 7 24 -2 4 -11 10 -19 14 -92 44 -129 62
-129 64 0 10 28 42 36 42 3 0 41 -18 84 -39z m-672 4 l9 -7 5 -29 c6 -29 28
-80 36 -82 2 0 5 3 5 7 3 16 8 14 19 -5 16 -27 21 -32 48 -46 29 -15 87 -27
92 -20 l2 5 11 -4 c21 -8 93 10 119 30 8 6 19 19 24 30 9 19 18 23 18 10 0 -3
2 -7 4 -8 7 -4 24 33 34 73 l10 39 8 7 c10 8 25 9 31 2 l5 -5 -4 -48 c-7 -83
-10 -89 -75 -158 -54 -56 -76 -73 -114 -85 l-25 -8 -33 0 c-38 0 -66 6 -97 20
l-22 11 -63 62 -63 62 -6 22 c-6 24 -16 122 -12 128 4 6 24 5 34 -3z m393 -47
c-2 -20 -6 -28 -17 -31 l-5 -1 1 20 c1 20 9 36 18 33 2 -1 3 -10 3 -21z m-329
8 l9 -10 5 4 c7 7 14 4 26 -9 l12 -12 8 7 7 6 11 -2 c12 -3 13 -6 15 -28 l1
-15 -7 -4 -6 -5 -11 5 c-6 3 -10 8 -10 13 0 11 -7 14 -12 4 -9 -16 -27 -7 -32
16 -2 14 -9 17 -11 5 -1 -4 -2 -9 -3 -12 l-2 -5 -8 4 -8 4 -2 18 c-4 27 2 33
18 16z m294 -6 c2 -3 2 -13 0 -22 l-3 -18 -9 -7 -10 -6 -5 4 c-3 3 -4 13 -4
22 l2 17 8 7 c10 8 17 9 21 3z m-42 -27 l2 -16 -6 -9 c-3 -5 -11 -9 -18 -9
l-12 -1 -1 21 -1 21 11 6 c6 3 14 5 17 5 l6 -1 2 -17z m-109 5 l5 -2 -1 -21
-1 -21 -16 -1 -16 -2 -6 9 -7 9 2 13 c3 21 12 24 40 16z m60 -17 c1 -10 -1
-20 -3 -23 l-5 -6 -17 1 -16 1 -1 17 c-1 10 1 20 3 23 l5 6 17 -1 16 -1 1 -17z
m-151 -38 c2 -5 2 -11 0 -13 -7 -7 -27 18 -22 26 l2 4 8 -4 c5 -3 10 -8 12
-13z m229 -2 c-5 -6 -11 -14 -15 -17 l-6 -5 -5 4 -4 4 6 11 c6 13 23 24 28 18
2 -2 0 -8 -4 -15z m-196 3 l10 -3 2 -15 c2 -18 -3 -21 -15 -10 -11 10 -16 22
-12 28 3 5 3 5 15 0z m157 -4 c6 -9 -20 -41 -27 -33 -5 4 -3 27 2 32 6 6 22 7
25 1z m-99 -5 c12 -12 2 -33 -16 -30 -10 1 -21 19 -18 28 l3 7 13 0 c7 0 16
-2 18 -5z m54 -11 c-1 -32 -37 -33 -37 0 0 10 11 16 26 14 l12 -1 -1 -13z
m633 -25 c1 -3 2 -10 4 -16 l2 -11 -14 -6 c-7 -3 -16 -10 -20 -15 l-6 -8 5 -6
c5 -7 15 -6 32 1 22 9 33 7 49 -6 l14 -13 4 -16 5 -17 -5 -16 c-6 -19 -32 -46
-54 -53 l-15 -6 -6 6 c-3 3 -6 12 -6 19 l-1 13 10 3 c6 2 15 6 21 10 l11 7 0
9 c0 6 -3 12 -8 14 l-8 4 -15 -4 c-22 -6 -42 -5 -52 2 -20 14 -27 47 -15 70
13 25 63 51 68 35z m-1277 -12 c51 -33 60 -61 36 -109 -28 -56 -61 -74 -103
-55 -18 9 -42 28 -42 34 0 5 70 125 79 136 8 9 6 9 30 -6z m114 -73 c17 -8 33
-17 36 -19 l4 -3 -4 -12 c-2 -6 -6 -14 -9 -16 l-5 -4 -17 8 c-20 10 -19 10
-26 -3 l-6 -12 5 -4 c3 -3 7 -5 9 -5 2 0 8 -3 13 -6 l9 -6 -8 -16 c-9 -18 -10
-19 -26 -8 -16 10 -17 10 -24 -5 l-7 -13 8 -6 c4 -3 14 -9 20 -13 l13 -6 -6
-16 c-2 -8 -8 -16 -11 -16 -9 -2 -75 34 -75 41 0 3 5 14 11 25 6 10 20 41 33
69 23 53 27 60 31 60 1 0 16 -7 32 -14z m1065 8 c19 -10 29 -40 23 -68 l-3
-13 27 -21 c14 -12 27 -24 28 -27 1 -2 -7 -9 -18 -14 l-19 -10 -24 21 c-14 12
-26 21 -27 20 -1 -2 2 -12 7 -23 13 -28 13 -33 -6 -43 l-15 -8 -4 5 c-3 5 -11
21 -52 116 -7 18 -13 33 -13 35 0 5 17 15 43 26 27 11 37 12 53 4z m-106 -51
l5 -16 -12 -5 c-7 -3 -16 -6 -20 -7 -9 -3 -9 -12 0 -23 l7 -8 15 6 14 6 4 -5
c2 -3 6 -10 8 -16 l5 -11 -5 -3 c-3 -1 -10 -6 -17 -9 l-12 -6 1 -10 c1 -5 3
-12 6 -15 l5 -5 17 8 17 7 4 -4 c2 -3 5 -10 8 -16 l4 -10 -6 -5 c-3 -2 -20
-10 -39 -18 l-33 -13 -5 4 c-2 3 -8 18 -13 33 -5 15 -17 49 -27 76 l-17 47 5
5 c7 7 63 30 70 29 3 -1 8 -8 11 -16z m-869 -25 c6 -45 15 -58 20 -30 2 6 5
18 9 25 l5 14 18 -5 17 -5 -1 -8 c-2 -10 -39 -125 -47 -143 -6 -15 -11 -17
-26 -9 l-10 5 -6 40 c-3 22 -8 40 -10 40 -2 0 -9 -13 -15 -28 -12 -33 -16 -37
-36 -28 l-14 6 18 47 c23 63 41 106 46 112 l4 5 12 -5 13 -6 3 -27z m772 -10
c2 -8 12 -44 24 -82 11 -39 18 -68 16 -71 -2 -2 -9 -5 -16 -7 l-13 -3 -6 8
c-3 5 -7 16 -10 25 -8 26 -15 31 -30 21 l-7 -5 7 -26 c4 -14 7 -28 7 -29 1 -5
-34 -15 -38 -12 -2 2 -10 31 -18 63 -8 33 -16 62 -18 65 l-4 5 -6 -4 c-4 -2
-10 -4 -14 -6 -9 -2 -9 -3 3 -74 l9 -58 -4 -4 c-3 -3 -12 -6 -20 -7 l-15 -3
-2 6 c-1 2 -6 32 -11 66 l-9 62 -16 0 -16 -1 1 -7 c1 -5 3 -25 4 -47 l2 -38
-5 -14 c-2 -7 -10 -19 -16 -25 l-12 -11 -21 -2 -21 -1 -13 8 c-17 10 -28 33
-33 68 l-4 27 4 22 c11 57 73 80 102 37 8 -13 15 -10 11 6 l-2 12 10 4 c5 2
25 7 45 10 l35 6 4 -4 5 -4 8 8 c4 4 13 8 19 9 l10 3 4 -5 c2 -3 6 -15 9 -28
3 -13 8 -25 11 -28 l5 -4 10 4 10 5 -10 29 c-12 34 -12 35 6 41 20 8 25 6 29
-10z m-602 -22 l6 -5 -4 -16 -3 -15 -10 2 c-6 0 -13 1 -16 2 l-6 0 -14 -64
-14 -64 -14 1 c-8 1 -17 3 -21 5 l-6 4 14 57 c7 31 14 60 15 64 l2 7 -13 6
-14 5 3 14 c2 8 4 16 5 18 l3 4 41 -10 c23 -6 43 -12 46 -15z m120 -15 c7 -2
17 -9 23 -16 l10 -12 0 -16 c0 -10 -3 -22 -8 -30 l-7 -12 6 -7 7 -6 0 -20 0
-19 -8 -12 c-5 -6 -15 -14 -22 -18 l-14 -7 -27 3 c-15 1 -30 4 -33 7 l-6 4 6
80 c4 44 7 82 8 85 l1 4 26 -2 c14 -1 31 -3 38 -6z m125 -9 c24 -13 30 -65 9
-87 l-8 -9 3 -6 c8 -15 24 -64 22 -68 -4 -6 -33 -5 -37 1 -2 3 -7 15 -11 27
-11 27 -15 27 -18 -3 l-2 -23 -18 0 -18 0 0 80 c0 44 2 83 3 87 l3 7 30 0 30
0 12 -6z"/>
<path d="M1559 2969 c-2 -2 -1 -9 0 -15 l4 -12 7 0 c4 0 8 2 9 4 2 6 -17 28
-20 23z"/>
<path d="M2640 2943 l-9 -16 7 -6 c10 -7 12 -7 22 6 10 12 10 18 1 26 -11 10
-12 9 -21 -10z"/>
<path d="M1318 2863 l-7 -6 4 -7 c2 -5 8 -11 12 -15 l8 -7 5 6 c6 8 2 25 -7
30 l-8 4 -7 -5z"/>
<path d="M1367 2809 l-11 -5 3 -5 c1 -3 7 -11 12 -18 l10 -13 8 7 c10 9 9 22
-2 32 l-9 8 -11 -6z"/>
<path d="M1181 2702 l-9 -6 0 -12 0 -12 10 -5 c12 -5 21 -2 27 11 l4 10 -4 10
c-5 11 -15 13 -28 4z"/>
<path d="M1248 2700 c-11 -11 -10 -18 3 -28 13 -10 15 -10 25 0 l8 8 -2 9 c-6
19 -21 24 -34 11z"/>
<path d="M1221 2654 c-1 -4 0 -8 2 -11 6 -6 18 0 16 8 -2 9 -14 11 -18 3z"/>
<path d="M2823 2701 c-4 -4 -7 -11 -7 -16 0 -17 21 -23 34 -9 l7 8 -3 11 -4
11 -10 1 c-6 1 -13 -2 -17 -6z"/>
<path d="M2892 2700 c-4 -4 -8 -11 -8 -14 0 -7 14 -22 21 -22 16 0 24 26 12
37 -10 9 -15 9 -25 -1z"/>
<path d="M2863 2657 c-5 -4 -3 -16 1 -19 7 -4 18 8 15 16 -3 6 -12 8 -16 3z"/>
<path d="M2000 2386 l-6 -7 5 -6 c6 -10 16 -11 25 -3 l8 7 -4 8 c-5 9 -21 9
-28 1z"/>
<path d="M2068 2386 l-5 -6 8 -9 9 -9 7 4 c4 3 7 9 7 14 l0 10 -10 1 c-6 1
-13 -1 -16 -5z"/>
<path d="M2040 2360 l-5 -9 4 -4 c6 -5 17 -1 17 6 0 3 -3 8 -6 11 l-5 5 -5 -9z"/>
<path d="M2717 2358 l-13 -6 2 -9 c5 -17 20 -41 26 -42 4 -1 11 3 18 7 l11 9
-3 11 c-4 14 -18 36 -23 36 -3 -1 -11 -3 -18 -6z"/>
<path d="M2029 2041 c-7 -6 -36 -85 -43 -116 l-3 -13 6 -10 c4 -5 11 -10 17
-12 l11 -2 16 14 16 14 15 -14 c19 -17 21 -17 34 -4 13 12 12 20 -2 64 -23 73
-30 86 -48 86 -6 0 -15 -3 -19 -7z"/>
<path d="M1317 1903 c-13 -13 -14 -27 -7 -55 8 -33 20 -52 37 -59 l14 -5 9 6
c31 20 5 110 -34 120 l-10 2 -9 -9z"/>
<path d="M1414 1630 c-26 -45 -28 -51 -15 -53 l10 -2 10 10 c29 26 41 63 25
77 l-7 7 -23 -39z"/>
<path d="M2585 1602 l-7 -5 7 -15 c8 -16 11 -17 20 -7 l7 8 -4 10 c-4 13 -13
16 -23 9z"/>
<path d="M2146 1474 l-7 -10 2 -32 2 -31 6 -11 c9 -12 21 -13 27 -1 l5 8 -2
31 c-3 48 -18 69 -33 46z"/>
<path d="M1910 1482 c-2 -3 -2 -10 -1 -15 l1 -9 8 0 c4 0 9 3 11 7 l5 7 -8 8
c-9 9 -13 10 -16 2z"/>
<path d="M1907 1417 c-1 -2 -3 -9 -4 -17 l-1 -14 12 0 c6 0 13 3 15 7 l5 6 -5
11 c-5 9 -18 14 -22 7z"/>
<path d="M2027 1477 c-4 -4 -3 -28 1 -31 7 -4 20 6 20 15 0 14 -13 24 -21 16z"/>
</g>
</svg>
